<svg clip-rule="evenodd" fill-rule="evenodd" stroke-linejoin="round" stroke-miterlimit="2" viewBox="0 0 180 180" xmlns="http://www.w3.org/2000/svg"><path d="m1629.92 732.283h874.016v685.039h-874.016z" fill="#60006a" transform="matrix(.686486 0 0 .875862 -1328.92 -851.379)"/><path d="m2504.86 2380.12c4.54-.18 9.14 1.31 12.79 4.46l.63.55 32.23 32.23-45.81-.05h-.59c-4.04-.3-7.68-1.88-10.55-4.35l-1.57-1.55-.55-.6c-.03-.03-.06-.06-.09-.09-2.67-3.24-4.27-7.42-4.27-11.98 0-9.82 7.61-17.87 17.24-18.58z" fill="#fff" transform="matrix(-.639052 0 0 -.639052 1731.25 1670.29)"/><path d="m2504.86 2380.12c4.54-.18 9.14 1.31 12.79 4.46l.63.55 32.23 32.23-45.81-.05h-.59c-4.04-.3-7.68-1.88-10.55-4.35l-1.57-1.55-.55-.6c-.03-.03-.06-.06-.09-.09-2.67-3.24-4.27-7.42-4.27-11.98 0-9.82 7.61-17.87 17.24-18.58z" fill="#ff6d00" transform="matrix(.639052 0 0 .639052 -1499.72 -1419.95)"/><path d="m2504.86 2380.12c4.54-.18 9.14 1.31 12.79 4.46l.63.55 38.02 32.23-51.6-.05h-.59c-4.04-.3-7.68-1.88-10.55-4.35l-1.57-1.55-.55-.6c-.03-.03-.06-.06-.09-.09-2.67-3.24-4.27-7.42-4.27-11.98 0-9.82 7.61-17.87 17.24-18.58z" fill="#44b1c9" transform="matrix(.639052 0 0 .639052 -1505.18 -1395.54)"/><path d="m2488.01 834.989c184.08 0 333.52 149.445 333.52 333.521 0 184.07-149.44 333.52-333.52 333.52-184.07 0-333.52-149.45-333.52-333.52 0-184.076 149.45-333.521 333.52-333.521zm0 134.069c110.08 0 199.45 89.372 199.45 199.452s-89.37 199.45-199.45 199.45-199.45-89.37-199.45-199.45 89.37-199.452 199.45-199.452z" fill="#fff" transform="matrix(.177748 0 0 .177748 -352.239 -117.7)"/><path d="m2504.86 2380.12c4.54-.18 9.14 1.31 12.79 4.46l.63.55 32.23 32.23-45.81-.05h-.59c-4.04-.3-7.68-1.88-10.55-4.35l-1.57-1.55-.55-.6c-.03-.03-.06-.06-.09-.09-2.67-3.24-4.27-7.42-4.27-11.98 0-9.82 7.61-17.87 17.24-18.58z" fill="#fff" transform="matrix(-.639052 0 0 -.639052 1731.25 1670.29)"/><path d="m2504.86 2380.12c4.54-.18 9.14 1.31 12.79 4.46l.63.55 32.23 32.23-45.81-.05h-.59c-4.04-.3-7.68-1.88-10.55-4.35l-1.57-1.55-.55-.6c-.03-.03-.06-.06-.09-.09-2.67-3.24-4.27-7.42-4.27-11.98 0-9.82 7.61-17.87 17.24-18.58z" fill="#ff6d00" transform="matrix(.639052 0 0 .639052 -1499.72 -1419.95)"/><path d="m2504.86 2380.12c4.54-.18 9.14 1.31 12.79 4.46l.63.55 38.02 32.23-51.6-.05h-.59c-4.04-.3-7.68-1.88-10.55-4.35l-1.57-1.55-.55-.6c-.03-.03-.06-.06-.09-.09-2.67-3.24-4.27-7.42-4.27-11.98 0-9.82 7.61-17.87 17.24-18.58z" fill="#44b1c9" transform="matrix(.639052 0 0 .639052 -1505.18 -1395.54)"/></svg>