<svg width="377" height="85" viewBox="0 0 377 85" xmlns="http://www.w3.org/2000/svg">
    <defs>
        <linearGradient x1="0%" y1="50%" x2="100%" y2="50%" id="a">
            <stop stop-color="#612166" offset="0%"/>
            <stop stop-color="#66286B" stop-opacity=".968" offset="23.47%"/>
            <stop stop-color="#763E7A" stop-opacity=".869" offset="42.58%"/>
            <stop stop-color="#906394" stop-opacity=".702" offset="60.15%"/>
            <stop stop-color="#B597B8" stop-opacity=".467" offset="76.81%"/>
            <stop stop-color="#E5DAE6" stop-opacity=".166" offset="92.67%"/>
            <stop stop-color="#FFF" stop-opacity="0" offset="100%"/>
        </linearGradient>
    </defs>
    <g fill="none" fill-rule="evenodd">
        <path d="M38.575 67.382a.714.714 0 0 1-.295.295M41.255 46.432a.564.564 0 1 0 .009-1.129.564.564 0 0 0-.009 1.129zM67.214 22.766v-.01H47.028v.01h-.004l.016 16.303c0 1.573.667 2.948 1.586 3.372l7.764 4.638a.94.94 0 0 0 1.34.073l7.884-4.711c.92-.424 1.587-1.799 1.587-3.372l.016-16.303h-.003zm-13.478 4.718H51.99V23.31h1.746v4.175zm-1.268 1.455.248-.259-.155-.284.327.034.195-.345.194.341.33-.03-.154.284.249.26-.317.06v.354l-.301-.224-.3.224V29l-.316-.06zm-4.873 5.194V30.17h2.12v3.963h-2.12zm.35-5.737.326.034.197-.345.192.341.33-.03-.154.284.248.26-.316.06v.353l-.3-.223-.3.223V29l-.316-.06.248-.26-.154-.284zm2.394 4.03.326.034.197-.344.191.34.331-.03-.154.284.248.259-.317.06v.354l-.3-.224-.299.224v-.354l-.317-.06.248-.259-.154-.285zm1.407-3.186c-.016-.106-.154-.134-.214-.134-.187 0-.264.312-.422.32-.117.006-.2.017-.2-.126 0-.105.24-.187.333-.279-1.31 0-1.334.6-1.539.6-.343 0 .287-.631.47-.815-.265-.042-.42-.37-.71-.534.137-.196.214-.111.385.026 0-.137.103-.298.408-.298.585 0 .42.566.516.566.094 0-.007-.566.386-.566.579 0 1.305 1.492.648 1.492-.283 0-.055-.213-.06-.252zm-1.501-4.364.248-.26-.154-.284.326.034.197-.345.191.34.331-.029-.154.285.248.26-.317.06v.353l-.3-.225-.299.225v-.354l-.317-.06zm-.53-1.567v4.175h-2.12V23.31h2.12zm4.02 21.54-4.83-2.885c-.807-.55-1.204-1.52-1.31-2.69v-4.588h6.14V44.85zM51.99 34.134V30.17h1.746v3.963H51.99zm7.966 11.045-2.23 1.333h-.04a.936.936 0 0 1-1.183-.009l-2.218-1.324V34.686h5.671v10.492zm0-11.045h-5.67V23.31h5.67v10.824zm6.69 5.142c-.106 1.168-.503 2.14-1.31 2.689l-4.83 2.885V34.686h6.14v4.589zm0-5.142h-6.14V23.31h6.14v10.824z" fill="#231F20" fill-rule="nonzero"/>
        <path d="M53.41 38.421c-.03-.065-.77.246-.56.226.022-.219.432-.664.616-.829-.034-.258-.364-.024-.71.157 1.15-1.647.412-.972-.23-.855 1.026-1.105.756-1.087 0-.743.594-.471.72-1.032.63-1.196-.558.744-1.071.628-1.071 1.317 0 .453-.164 1.198-.397 1.45-.3.325-.07-1.216-.857-1.216-.252 0-.847-.02-1.027.288.161 0 .401.409.401.572 0 .163.149.61-.12.61-.27 0-.582-.566-.582-.838 0-.271-.019-.207-.019-.597 0-.652-1.061-1.569-1.493-1.569 0 .454.593.563.593 1.143-.251 0-.61-.471-.61-.181s.377.344.377.598c0 .255-.432-.09-.432.181 0 .24.236.199.293.433-.175-.05-.332-.027-.364.063-.028.079.052.18.184.254-.06.055-.113.191-.113.573 0 1.288.807 1.886 1.4 1.886.422 0 .357-.295.408-.436.018.219.225-.108.225.273 0 .398-.41.223-.41.567 0 .46.647-.016.647.494a6.06 6.06 0 0 1-.076.84c0 .161.677-.226.635-.296.162.059.155.538.456.526.195-.009.238-.491.392-.533-.091.025.612.459.612.24 0-.6-.246-.346-.246-.758 0-.38.831-.307.7-.501-.11-.162-.186-.063-.274-.347.016.053-.653-.954.139-.435.833.545.927-1.266.883-1.36zM74.945 42.685a.59.59 0 1 0-.664-.585c.023.345.32.606.664.585zM72.26 44.281a.59.59 0 1 0-.663-.585c.022.344.32.606.664.585zM40.353 47.96a.59.59 0 1 0-.665-.585c.023.345.32.606.665.585zM42.42 48.138a.59.59 0 1 0-.663-.586c.023.345.32.606.664.586zM99.865 20.295a4.158 4.158 0 0 1 .492 4.398c-.387-.035-.317-.532-.387-.816-.705-1.312-1.268-2.979-.634-4.468.459.071.281.638.529.886zM15.574 21.891a6.266 6.266 0 0 0 0 2.802c-.175.178-.14-.177-.317-.142-1.373-.993-.738-2.943-1.09-4.326a.272.272 0 0 1 .351-.071c.634.425.916 1.028 1.056 1.737zM102.893 21.998c.21.39-.177.78-.459.957a.91.91 0 0 1-.88-.39.814.814 0 0 1 .423-.922c.349-.07.705.07.916.355zM13.427 23.559c-.07.318-.176.638-.457.779-.212 0-.53 0-.67-.177a.653.653 0 0 1-.142-.745c.143-.248.424-.284.67-.319.247.106.493.178.599.462zM104.265 24.161a.686.686 0 0 1-.95.887.95.95 0 0 1-.387-.603c.1-.289.317-.521.598-.639.282.021.546.148.739.355zM102.258 24.197c.282.14.07.496.036.709-.177.177-.422.46-.74.353-.177-.176-.386-.176-.457-.424 0-.355.14-.71.493-.816.282-.07.457.07.668.178zM99.688 24.728c0 .391.035.887-.423.959-.422.14-.704-.214-.808-.498a.839.839 0 0 1 .527-.851c.28.02.539.163.704.39zM17.264 24.906c.106.353-.246.567-.456.745-.247.07-.565-.143-.706-.392-.246-.246.07-.46.141-.672.352-.32.88-.071 1.02.319zM15.152 25.013a.726.726 0 0 1-.386.674c-.282.105-.564-.108-.706-.32a.602.602 0 0 1 .317-.816c.388-.142.634.212.775.462zM91.168 25.154c.386.802.624 1.667.704 2.553-.141.674.106 1.56-.388 2.022-.493-.178-.527-.781-.845-1.1-.633-1.24-.07-2.695.141-3.9.282-.107.282.248.388.425zM13.497 25.58c.105.425-.211.638-.457.885-.423.107-.704-.212-.882-.496a.89.89 0 0 1 .459-.85.903.903 0 0 1 .88.46zM96.73 26.607a5.118 5.118 0 0 1 .176 3.405l-.211.177c-.493-.957-1.197-1.844-1.444-2.872a4.719 4.719 0 0 1 .424-2.022c.246-.176.386.036.492.249.018.421.225.812.564 1.063zM101.168 25.969c-.036.355-.177.745-.53.851-.352.072-.703-.035-.81-.425a.766.766 0 0 1 .388-.851c.387-.213.775.143.952.425zM15.187 27.069a.758.758 0 0 1-.528.674c-.282.212-.492-.143-.74-.249-.105-.284-.176-.532 0-.815.107-.214.353-.214.564-.284.317.177.634.32.704.674zM16.736 26.892c.142.355-.246.532-.387.709-.423.142-.634-.178-.81-.426-.07-.355.141-.568.387-.78.423-.106.635.177.81.497zM102.153 26.785c-.036.462-.74.922-.81 1.383a3.568 3.568 0 0 1-2.183 1.986 1.688 1.688 0 0 1-.81.46c-.07-.708.564-1.347.951-1.984a5.22 5.22 0 0 1 2.852-1.845zM14.483 28.275c.528.602.81 1.134 1.443 1.666a.292.292 0 0 1-.246.355c-1.725-.107-2.887-1.88-3.732-3.12.106-.391.563-.072.81-.107.599.46 1.268.603 1.725 1.206zM102.646 28.77c-.071 1.526-.81 3.086-2.183 3.83-.388.142-.81.533-1.198.285.74-1.526 1.867-2.766 3.1-4.114h.28zM95.886 29.8c.105.53-.177.85-.598 1.027-.388.036-.635-.283-.811-.567a.741.741 0 0 1 .494-.78.582.582 0 0 1 .421-.107c.212.072.317.249.494.426zM12.546 30.119c.67.46 1.268 1.099 1.902 1.666-.457.32-1.021.035-1.55.035-1.197-.425-2.006-1.453-3.239-1.808.035-.39.493-.248.74-.354.775-.071 1.408.283 2.147.46z" fill="#231F20" fill-rule="nonzero"/>
        <path d="M50.255 19.622c-1.971-.78-3.275 1.276-5.282 1.028-.245.142-.175.39-.316.568-.106.106-.282.035-.388-.036-.105-.851-.387-1.631-.492-2.447-.212-.354-.106-.85-.282-1.206-1.126-3.084 2.746-.744 3.52-2.552.671-1.561-1.302-1.738-1.9-2.837v-.462c-.564-.567-1.162-.744-1.515-1.49a5.131 5.131 0 0 0 .106-2.73c-.035-.213-.176-.496-.492-.39-.67.922-1.162 1.667-1.797 2.554-.669-.497-1.303-1.135-2.077-1.561-.528-.07-1.02-.603-1.619-.39a.484.484 0 0 0 .106.531c.035 1.384.739 2.483 1.724 3.476l.106.533c-.633 1.453-.457 3.12-.633 4.68-1.585 4.042-4.155 7.944-7.64 10.745-2.007 2.27-4.402 4.469-4.72 7.589-.104.497.072 1.1-.315 1.454a12.105 12.105 0 0 1-3.275-1.737c-1.62-1.136-3.944-.994-5-3.05-.422-.816.107-1.632.493-2.234 1.197-1.135 1.021-3.157.388-4.539-.141-.036-.177.14-.282.176-.106 2.093-1.761 3.546-1.127 5.852.141.673.493 1.1.67 1.738a5.471 5.471 0 0 1-.81-.178c-.776-.106-1.55-.425-2.36-.32-1.62.746-3.837-.176-5.14 1.313-.212.036-.493.072-.422.39.774 0 1.513.213 2.288.178 1.232.212 2.042-.816 2.887-1.277h.21c.354-.355.953-.142 1.41-.213 2.218.249 3.943 1.312 5.774 2.412v.14c-.704.32-1.514.533-2.219.923-.81.603-1.725 1.383-1.971 2.377-.563.886.176 1.666.528 2.41.035.355.07.78.387.923 1.127-1.206.07-2.695.247-4.079.282-1.064 1.268-1.56 2.289-1.843 2.006-.851 3.45.78 5.069 1.702-.034 1.631.177 3.191-.175 4.787a4.385 4.385 0 0 1-1.656.248c-2.781.213-4.964 1.738-7.464 2.589-1.126.39-2.464.355-3.59.78.879.248 1.795-.07 2.71-.106 3.45-.497 6.091-3.157 9.823-2.696l.07.107a8.322 8.322 0 0 1-1.654 2.305c-.106-.39-.14-.709-.493-.922-.282-.142-.599 0-.81.284a.485.485 0 0 0 0 .532c.176.319.458.39.776.496-.071.32-.459.461-.67.744-.986 1.667-2.993.994-4.155 2.164-.176.248-.81.39-.528.78a5.286 5.286 0 0 0 3.627-.923c1.303-1.453 2.676-2.836 3.978-4.219a4.228 4.228 0 0 1-.774 3.227c-.317-.177-.564-.426-.95-.532a.868.868 0 0 0-.634.71c.123.271.302.513.527.71-1.196.85-2.71.921-4.084 1.31-2.546.332-5.108.521-7.675.568-1.232-.07-2.641.355-3.802 0-1.339.248-2.782-.177-3.874.568-.14.177.034.354.034.531 1.621 1.065 3.84.213 5.67.533h13.872c1.022-.035 2.042-.071 2.852-.533 1.797-1.028 2.782-2.872 3.698-4.68a7.268 7.268 0 0 0 .74-2.128 3.06 3.06 0 0 1 2.639-2.163c.176 1.844-.175 3.687-.599 5.39-.21 1.135-.95 2.234-.492 3.44.105.567.705.567 1.162.638 4.26-.07 8.52-.248 13.027.071.81.141 1.515.39 2.394.354.07-.107.317-.141.212-.354-.106-.39-.388-.886-.846-.993-.07-.213-.386-.142-.493-.284-2.252-1.276-4.963-.602-7.605-.567-1.373.142-2.746.39-3.908-.39-.528-.639-.141-2.66-.141-2.66 0-.801 1.937-6.383 2.184-6.844.07-.532.28-1.028.21-1.632.282-.709.212-1.63.212-2.41.141-1.136.704-2.2 1.091-3.298.212-.533.388-1.1.599-1.632.211-.674.283-1.312.704-1.844 1.149.729 2.272.708 2.824 2.01l.486 2.955c0 .178.14.531.387.32.915-.604.634-1.952.634-2.873.211-1.1-.563-1.632-.88-2.59-.247-.176-.652-1.022-.652-1.022-.142-.781-1.848-1.318-1.46-2.275.21-.816.421-1.56 1.196-2.021a.368.368 0 0 1 .176.251l.422-.296.045-2.965c1.14-.005 2.842.142 4.004.142.318.106.564.354.916.39l.281-.39 2.854-.556c-1.212.135-1.948-1.257-3.1-1.257z" fill="#231F20" fill-rule="nonzero"/>
        <path d="M53.355 20.879c.089-.01.177-.027.263-.051l-.263.05z" fill="#FFF" fill-rule="nonzero"/>
        <path d="M22.687 30.757a.784.784 0 0 1-.53.815c-.28-.106-.491-.141-.667-.425-.141-.39.21-.674.492-.816.282.071.634.106.705.426zM20.399 30.757c.2.222.254.54.14.815-.246.213-.634.39-.845.107-.212-.213-.422-.461-.247-.745.247-.248.67-.46.952-.177z" fill="#231F20" fill-rule="nonzero"/>
        <path d="m69.409 31.147.03.051" fill="#FFF" fill-rule="nonzero"/>
        <path d="M96.237 31.75c.142.39-.176.673-.457.815-.353-.106-.81-.177-.81-.638a.679.679 0 0 1 .528-.532c.317-.106.598.142.74.355zM98.104 31.68c.105.176.352.46.07.638-.132.074-.252.17-.352.283-.387.07-.739-.071-.845-.426-.07-.39.246-.567.528-.744.246-.071.422.106.6.248zM11.56 32.105a.694.694 0 0 1-.95.46 1.47 1.47 0 0 1-.281-.46.655.655 0 0 1 .387-.603c.422.035.74.212.844.603zM23.427 32.708c-.037.283-.353.531-.599.673-.353.035-.599-.248-.775-.496 0-.284.14-.639.422-.71.387-.142.81.142.952.532zM21.349 32.459c.14.153.181.374.106.568-.212.177-.529.496-.88.283-.213-.177-.459-.32-.389-.674a1.56 1.56 0 0 1 .53-.425c.28-.07.421.106.633.248zM103.491 32.885a.942.942 0 0 1-.458.673.69.69 0 0 1-.775-.177c-.21-.07-.14-.354-.14-.532.163-.226.4-.389.668-.461.285.08.534.255.705.497zM105.744 33.204a.878.878 0 0 1-.67.638c-.21-.036-.598-.106-.526-.426a.63.63 0 0 1 .316-.567.622.622 0 0 1 .88.355zM15.574 33.7c.071.426-.07.71-.422.851-.247.142-.493-.035-.669-.177a.61.61 0 0 1-.176-.71c.07-.318.387-.248.598-.39a.869.869 0 0 1 .67.427zM17.3 34.019c.105.284-.212.39-.282.603a.588.588 0 0 1-.634.07c-.246-.212-.528-.53-.282-.85.282-.532 1.021-.248 1.198.177zM101.412 33.842c.036.354-.28.603-.491.816a.606.606 0 0 1-.705-.426.734.734 0 0 1 .387-.674c.317-.035.635 0 .81.284zM104.3 34.41c-.07.318-.035.674-.387.886-.289.081-.598.03-.845-.142a.65.65 0 0 1-.14-.745.827.827 0 0 1 .844-.425c.247.142.317.319.529.425zM14.237 35.154c.14.283-.177.355-.282.497a.712.712 0 0 1-.704-.072c-.247-.142-.14-.495-.106-.673.317-.603.952-.177 1.092.248zM102.082 35.828c.14.035.07.248.035.319-.844.426-2.112.532-2.852-.142-.422-.354-.95-.496-1.408-.78.176-.461.81-.426 1.268-.532 1.02.142 1.83 1.1 2.957 1.135zM15.926 35.509c.071.284-.14.39-.21.603-.142.213-.423.141-.6.07-.315-.213-.457-.603-.246-.886.387-.39.845-.177 1.057.213zM19.025 35.722c.14.319-.07.603-.352.78-.248.141-.457-.07-.67-.107-.175-.248-.492-.532-.175-.816.317-.53.95-.248 1.197.143zM59.732 37.221c-.067.708-1.238-.1-1.071.843.167.674.302 1.482.703 1.987.334.472.166 1.213.134 1.786-.33.5-.793.897-1.338 1.146-1.004-.102-2.476.504-2.944-.742-.201-.539-.57-1.078-.57-1.684.102-.068.236-.068.336-.168 0-.236-.267-.371-.234-.607 1.137-.203-.469-1.213.502-1.28.802.842 2.107.573 2.81 1.482.15.163.318.31.5.438-.133-.843-.534-1.684-.668-2.594a1.172 1.172 0 0 1 .402-1.18c.602-.47 1.103.203 1.438.573zM22.124 36.998c.105.355-.176.568-.388.745-.316.141-.493-.213-.634-.39-.106-.355.141-.532.353-.71a.761.761 0 0 1 .669.355zM43.847 37.353a4.866 4.866 0 0 1-.423 3.972c-.034.283.071.744-.317.709-.95-1.312-.246-3.157.142-4.54.07-.354.493-.496.598-.141zM73.986 38.026a4 4 0 0 1 .07 3.299l-.281.283a8.103 8.103 0 0 1-.81-2.518c.176-.638.387-1.206.423-1.88.493-.105.457.533.598.816zM24.87 38.416c-.212.425-.81.532-1.198.816-.843.638-2.077.78-3.133.603.916-1.276 2.324-2.022 4.013-1.667.071.142.248.071.318.248zM10.4 39.693c1.302.922 1.654 2.198 2.428 3.475.105.142.458.178.317.461-.282.213-.563-.213-.95-.142-1.339-.603-2.184-2.092-2.149-3.652 0-.142.212-.142.353-.142zM72.613 40.792c.036.355-.036.71-.317.816a.643.643 0 0 1-.81-.425c-.106-.248.105-.39.176-.568a.624.624 0 0 1 .95.177z" fill="#231F20" fill-rule="nonzero"/>
        <path d="M87.471 42.672c0-.674.176-1.312.246-1.95.12-.229.17-.488.141-.745.845-1.136 2.57-.78 3.908-.674.528.284 1.197.248 1.76.39.263-.163.576-.226.881-.177 1.126-.604.387-1.915.458-2.943l-.423-1.064a4.122 4.122 0 0 1-.282-.71c-.21-.248-.351-.709-.562-.957-.599-1.56-1.761-2.447-2.747-3.688-1.796-2.34-4.613-3.653-7.43-4.575-2.78-.957-5.598.284-8.098 1.17-.774-.212-1.16-.815-1.372-1.49a7.038 7.038 0 0 1 .669-3.758c.106-.886.703-1.56.95-2.376.633-1.985 1.303-3.936 1.444-6.099.07-1.312-.915-2.235-1.901-2.802-.67-.177-1.444-.141-1.937.39-.458.958-1.444 1.597-2.288 2.057-.071.603.668.213.914.426.775.142 1.656-.107 2.29.39.07 1.418-.74 2.59-1.48 3.653-1.197 1.773-2.463 3.581-3.203 5.532l-.14-.143.17 8.669c1.122 1.868 2.524 3.997 4.617 4.701 1.126.921 2.535 2.02 4.049 1.206.81-.249.88.886 1.267 1.347.423 1.312-.527 2.234-.598 3.439l-.916 1.951c-1.056 2.057-2.006 4.255-3.626 5.993-.528 0-.845.567-1.372.603-.283.39-.846.106-1.198.248-1.091.461-2.64.178-3.38 1.206.07.09.17.153.281.177 2.147.035 4.542.178 6.83.071a.85.85 0 0 0 .564-.674c-.316-.602.106-1.135.387-1.596.176-.851.74-1.382.987-2.198.739-1.454 1.584-2.872 2.393-4.327l1.092-1.772c.303-.694.668-1.359 1.091-1.986.251-.291.464-.613.634-.957.036-.356-.14-.497-.353-.746.247-.248.634-.177.952-.248.88.532 1.796 1.383 1.972 2.341l.317.921.141.426-.071 1.17.141 1.1c.176 1.702-.141 3.44-.317 5.142-.599 2.057-2.957 1.844-4.648 2.305-.422.283-1.231.142-1.231.85 2.04.427 4.435.178 6.618.143.352-.142.423-.461.598-.78.071-.461.529-.852.387-1.348-.387-.496-.034-1.276-.14-1.95a1.09 1.09 0 0 0 0-.674c.282-1.028.212-2.27.422-3.263l.142-1.347zM104.793 41.29c-1.126 1.595-2.324 3.403-4.294 3.97-.142 0-.283.071-.354-.106 1.197-1.277 1.832-3.263 3.698-3.723.281-.142.67-.284.95-.142zM8.673 43.027c-.175.141-.034.46-.352.496a.567.567 0 0 1-.738-.32c-.142-.354.175-.709.457-.78.281.143.563.249.633.604zM18.814 43.523c.105.32-.247.32-.423.39-1.48.532-2.992.035-4.049-1.028 0-.142 0-.284.141-.32 1.443.355 3.134.072 4.331.958zM10.61 43.062c.075.167.1.352.07.532a.782.782 0 0 1-.88.32 1.144 1.144 0 0 1-.458-.462.841.841 0 0 1 .599-.673c.25.012.487.112.67.283zM43.6 43.24c.07.318-.21.532-.422.673a.696.696 0 0 1-.739-.284.512.512 0 0 1 .247-.674c.317-.07.81-.035.914.285zM106.13 43.382c.107.354-.21.531-.456.744-.211.106-.458 0-.67-.107-.035-.177-.245-.319-.175-.567a.752.752 0 0 1 .809-.425c.173.106.337.224.493.355zM108.456 43.24c.21.318.035.567-.142.815-.12.23-.4.324-.634.213-.211-.213-.493-.32-.527-.639 0-.283.316-.496.527-.602.353-.143.494.213.776.213zM7.195 44.268c.035.248-.176.39-.246.603-.176.07-.353.213-.564.142a1.035 1.035 0 0 1-.528-.568.92.92 0 0 1 .634-.709c.31.044.576.245.703.532z" fill="#231F20" fill-rule="nonzero"/>
        <path d="M81.344 44.268c.047.149.059.306.036.46-.21.285-.493.533-.846.356-.21-.213-.458-.426-.352-.746.283-.39.881-.53 1.162-.07zM12.863 44.8c-.07.248-.175.496-.492.531-.317.036-.423-.247-.599-.39 0-.319-.036-.638.282-.815.422-.142.81.212.81.674zM9.484 44.87c.105.355-.142.603-.353.78-.422.143-.775-.177-.95-.496.045-.368.288-.681.633-.816.317 0 .493.355.67.533zM83.668 44.8a.705.705 0 0 1-.387.85c-.423.143-.775-.212-.951-.496.176-.283.211-.674.634-.744a.809.809 0 0 1 .704.39zM11.138 44.942c.106.248-.105.354-.177.531-.175 0-.28.213-.492.142-.14-.177-.423-.248-.458-.496-.035-.355.212-.532.458-.674a.65.65 0 0 1 .67.497zM104.194 45.225c-.114.263-.33.468-.598.568-.281.07-.458-.178-.668-.285-.177-.141-.107-.46-.035-.637a.706.706 0 0 1 1.301.354zM106.87 45.367a.912.912 0 0 1-.844.603c-.317-.141-.67-.39-.423-.816.14-.141.211-.283.423-.32.423-.14.739.179.844.533zM90.146 45.615c.177.462-.245.603-.527.816a1.608 1.608 0 0 1-.67-.284.816.816 0 0 1 .494-.922.85.85 0 0 1 .703.39zM80.465 46.04c.176.072.105.32.07.427-.211.141-.493.496-.81.283a.6.6 0 0 1-.353-.673c.178-.39.917-.426 1.093-.036zM82.436 46.29a.483.483 0 0 1-.282.567c-.247.247-.528-.036-.774-.107a.568.568 0 0 1-.036-.532.784.784 0 0 1 .458-.284c.247.072.528.072.634.355zM22.687 46.324c.21.213-.036.462-.07.675a.688.688 0 0 1-.881.177c-.352-.142-.316-.604-.246-.887.21-.07.21-.32.492-.32.268.038.515.163.705.356zM93.914 46.467c.07.354-.282.496-.528.567-.423.142-.634-.177-.81-.462 0-.212.21-.354.282-.531.493-.212.81.142 1.056.426zM92.013 46.467c.14.354-.247.532-.388.709a.706.706 0 0 1-.775-.142c-.176-.107-.176-.319-.176-.532.211-.178.317-.39.565-.461.314 0 .606.16.774.426zM107.892 46.892c.07.496-.563.248-.81.39-1.479.886-3.38.212-4.788-.32.105-.46.634-.283.916-.46 1.513-.958 3.062.213 4.575.284l.107.106zM11.525 46.467l-.14.248c-1.303.78-2.994 1.311-4.542.815l-.141-.212c1.302-.958 3.027-1.206 4.718-.958l.105.107zM97.505 46.715a.805.805 0 0 1-.353.673c-.35.106-.81 0-.915-.39-.105-.283.177-.567.458-.673.247 0 .67.035.81.39zM17.828 46.857c-.14.283-.07.567-.423.709-.352.141-.775-.178-.88-.462-.105-.39.176-.496.353-.673.421-.213.74.106.95.426zM15.329 47.034c.105.248-.107.39-.177.567-.177.213-.493.178-.704.106-.246-.213-.493-.46-.388-.85.164-.162.355-.294.564-.39.317.07.633.212.705.567zM99.97 47.849a.758.758 0 0 1-.563.639.8.8 0 0 1-.67-.355.555.555 0 0 1 .141-.674c.07-.106.317-.106.458-.177a.757.757 0 0 1 .634.567zM12.723 47.46c.105.283-.141.389-.177.602-.105.604-.492.993-.774 1.525-.67.815-1.62.815-2.57 1.064l-.14-.284c1.02-1.312 2.112-2.34 3.555-2.979l.106.071zM98.21 48.24c.07.426-.283.497-.528.673a.8.8 0 0 1-.705-.425c-.106-.39.246-.532.458-.71a.709.709 0 0 1 .774.462zM16.771 48.24c-.035.07.037.14.107.177-.035.39-.317.496-.529.673a.952.952 0 0 1-.775-.353.591.591 0 0 1 .352-.817c.317-.035.74 0 .845.32zM104.689 49.304c.35-.036.42-.462.81-.532a.86.86 0 0 1 .844.39c.14.425-.177.638-.458.815-.247.177-.775-.213-.74.248a1.1 1.1 0 0 1 .493.71c-.07.141-.316.106-.422.035-1.022-.426-2.113-1.134-2.535-2.198-.141-.32-.81-.568-.423-.852 1.022-.071 1.866.746 2.43 1.384zM108.068 48.204a.54.54 0 0 1-.035.674c-.177.354-.704.212-1.021.177-.176-.177-.352-.354-.282-.639.122-.206.308-.367.528-.46a.975.975 0 0 1 .81.248zM95.288 50.119c.331.429.593.908.773 1.419-.07.106-.246.07-.316.07-1.196-.674-2.746-1.418-3.205-2.836-.105-.142-.387-.32-.352-.568.916-.178 1.796.497 2.43.993.247.355.528.532.67.922zM14.8 48.772c.141.318-.141.567-.316.708a.812.812 0 0 1-.811-.283c-.246-.39.211-.71.494-.852.28-.035.457.249.634.427zM99.688 49.587c.035.213-.245.354-.352.497-.281.035-.563.141-.81-.107-.07-.177-.246-.461-.035-.638.387-.497.952-.107 1.197.248zM108.456 50.084c.105.425-.212.709-.495.886-.35.106-.632-.142-.844-.32-.176-.212-.034-.425 0-.673.246-.213.563-.39.916-.248.157.097.3.216.423.355zM84.09 54.977c0 .425-.774.32-1.091.639-1.092.567-2.394.567-3.697.532v-.213a5.23 5.23 0 0 1 4.789-.958zM32.722 56.502a.587.587 0 0 1-1.128.248c-.141-.425.212-.603.458-.78a.823.823 0 0 1 .67.532zM83.492 56.892c-.07.32-.176.674-.528.816-.317.07-.528-.107-.776-.248-.175-.142-.069-.39-.104-.568a.757.757 0 0 1 1.408 0zM90.5 57.034c-.881.567-1.867 1.242-3.029 1.242l-1.9-.037-.179-.141c1.163-1.418 3.276-1.418 5.107-1.277v.213zM23.074 57.885a.65.65 0 0 1-.458.674.614.614 0 0 1-.458-1.135c.388-.248.775.177.916.46zM24.834 58.24c.106.177-.07.284-.14.462-.212.105-.492.177-.669 0a.448.448 0 0 1-.211-.604c.105-.213.317-.178.422-.32.252.07.467.235.598.461zM11.35 61.821c-.353.426-.916-.106-1.304-.32-1.232-.708-1.196-2.091-2.429-2.907.14-.425.457.036.704-.035.235.151.482.282.74.39 1.197.674 1.479 1.808 2.289 2.872z" fill="#231F20" fill-rule="nonzero"/>
        <path d="M113.983 48.062c-.563-1.028-1.515-1.454-2.641-1.454-.915.071-1.585.674-1.972 1.454-.21.726.058 1.506.67 1.95a.544.544 0 0 0 .703-.177c.177-.461-.316-.461-.387-.816-.132-.454.02-.943.387-1.24.352-.355.951-.178 1.373-.178.423.284.846.532 1.056 1.029.213.608.213 1.27 0 1.879a3.15 3.15 0 0 1-2.182 1.773c-2.922.425-34.998.284-34.998.284-3.766.354-8.062-.71-11.3 1.276-1.48.71-2.22 2.34-2.606 3.794-.986.863-1.904 1.8-2.747 2.802l-.106-.106c.176-.851.563-1.596.74-2.447.527-.71.527-1.667.915-2.447 1.338-2.163 2.605-4.362 4.683-5.886.88-1.172 2.429-.958 3.767-.958 1.443.673 3.134.886 4.894.71a.325.325 0 0 0 .106-.25c-.493-.46-1.303-.638-1.866-1.098-1.408-.674-2.747.212-4.226.106-.07-.071-.14-.106-.105-.213 1.338-.993 2.851-1.702 4.366-2.341 1.232-.673 2.535-1.028 3.837-1.524.528 0 1.022-.46 1.514-.142l1.866-.497c.071.037.142.142.282.107 1.584-.532 3.592-.036 5.386-.07l.248.212 1.69.425c.633.071.916.816 1.584.851.352-.497-.387-.709-.564-1.028.776-.177 1.656.035 2.359.355l-.35.39c-.213.39.105.674.422.815.246.071.422-.106.597-.177.459-.32-.035-.638.106-.922a33.606 33.606 0 0 1 7.5 2.128c.668.213 1.302.709 2.042.673-.74-.673-1.76-1.027-2.676-1.418-.6-.355-1.444-.39-1.9-.886.104-.178.351-.107.456-.248 1.198-.142 2.219-1.029 3.064-1.986.07-.212.457-.142.423-.426-.318-.355-.846.106-1.268.072-1.48.282-2.113 2.02-3.592 2.34-1.795-.426-3.627-.852-5.422-1.312-.88-.142-1.83-.213-2.64-.568l-1.972-.178h-3.592c-.035-.07-.14-.105-.106-.212 1.269-.319 2.36-1.064 3.628-1.384l9.436-4.325a23.195 23.195 0 0 0 2.676-2.908.67.67 0 0 0-.389-.674.586.586 0 0 0-.703.142c-.423.319 0 .71 0 1.1-.452.554-1 1.022-1.62 1.382-.14-.036-9.717 4.362-9.717 4.362-1.41.603-2.817 1.277-4.296 1.596l-2.042.318a1.343 1.343 0 0 1-.881.816c-.562.107-1.02.461-1.619.461-4.578 1.774-9.33 3.653-12.957 7.27.212-.47.332-.975.352-1.49-.07-.531-.035-1.134-.387-1.56-.082-.195-.34-.767-.258-.972l-.516.334c-.317.78-.599 2.198-.282 3.014.106.638.634 1.384.141 1.95-1.69 2.057-2.641 4.54-3.767 6.88-.423-.07-.634-.46-.81-.85 1.197-1.526 2.148-3.228 2.5-5.178.246-.178.07-.639.316-.852-.07-.566.316-1.134.036-1.595.225-.774-1.03-1.488-.228-1.985l-.664.318c-1.515 1.986.786 4.965-.94 6.88v.141c-.492.64-.74 1.277-1.408 1.703-.844-.355-1.161-1.312-1.655-2.021-.775-.746-.775-2.27-.316-3.299.316-1.028-.211-1.915-.318-2.837l-.351-.211c-.845 1.098-1.162 2.836-.494 4.148.352.638.388 1.525.917 2.057.316 1.028.95 1.702 1.513 2.623.142.355-.211.426-.387.603-.386-.248-.317-.815-.669-1.063-1.162-2.482-2.676-4.469-4.506-6.49-.071-.32-.388-.602-.213-.957.67-.639.81-1.88.458-2.695-.07-.177-.28-.39-.245-.567l-.53-.426c.072 1.241-.738 2.34-.386 3.653v.07a67.007 67.007 0 0 0-11.721-7.083l-.325.901c1.032.26 3.772 1.926 3.772 1.926 1.232.462 2.358 1.207 3.52 1.88 4.789 2.66 7.958 7.058 10.105 11.952.036.39.388.815.141 1.205-.74-1.135-1.795-1.773-2.675-2.696-.247-1.666-1.233-3.262-2.676-3.936-.529-.78-1.655-.85-2.535-1.099l-12.816-.07c-10.422-.143-19.928.319-30.28.14-1.443-.14-3.204-.637-3.626-2.162a2.358 2.358 0 0 1 0-1.95c.387-.674 1.09-.887 1.795-.958.563.071.951.603 1.198.994 0 .46-.388.886-.565 1.276.036.141.177.425.424.318a1.65 1.65 0 0 0 .916-1.134c.034-.249.14-.602-.107-.78-.21-.745-.986-1.277-1.654-1.454a2.942 2.942 0 0 0-2.395.815c-.844.71-.81 1.987-.563 2.98.563 1.56 2.218 2.624 3.803 2.836l34.258.143c3.345.176 7.112-.391 10.492.283 1.233.39 2.536 1.311 2.852 2.695-.036.07-.141.035-.246.035-2.783-1.808-6.444-2.482-10-2.056-1.408-.071-2.676.46-3.943.815a1.999 1.999 0 0 1-1.726-.567c-1.267-1.135-3.485-1.064-5.105-.639 0 .107-.035.213.035.249 1.725-.142 2.747 1.347 4.296 1.525.352.07.633-.32.95-.036-1.618.78-3.169 1.702-4.894 2.199-.528-.106-.81-.603-1.232-.887-.67-.744-1.9-.426-2.816-.496-.317.07-.598-.142-.81 0 .281.567.915.886 1.515 1.17.878.39 1.9-.036 2.71.496-.212.249-.493.32-.74.497-1.655.639-3.028 2.128-4.859 2.021-1.935.212-3.908-.354-5.21-1.702-.564-1.383-2.007-2.127-3.557-2.056-.105.07-.246.07-.211.248.775.46 1.373 1.382 2.148 1.915.493.602 1.444 0 1.9.673a6.276 6.276 0 0 0 2.29.993c.593.224 1.206.39 1.83.497l-.246.142c-3.203 1.063-6.9 1.17-10.492 1.028-1.056-.036-2.078-.355-3.134-.32.236.234.526.405.845.497-.29.168-.616.265-.95.284-.422.106-.916.142-1.34.355-.562-.036-1.055.177-1.512.354-.6.638-1.303 1.312-2.007 1.631 0 .142-.035.356.141.356.67-.284 1.514-.072 2.183-.356 1.16-.106 1.83-1.383 2.747-1.915.984-.78 2.393-.602 3.59-.425.705.177-.07.46.141.922.282.248.528.532.916.425a.617.617 0 0 1 .246-.177.81.81 0 0 0 .035-.887c.493-.32 1.163.036 1.69-.177 1.338-.035 2.676-.32 3.98-.355.21-.035.457-.248.668-.035-.105.284-.458.32-.316.709.07.319.422.461.703.532.353-.142.669-.39.528-.85-.07-.25-.351-.284-.528-.39.74-.356 1.584-.462 2.324-.817a6.592 6.592 0 0 0 1.479-.496c.457-.035.845-.46 1.267-.284a7.312 7.312 0 0 1-.74 1.703c-.561 1.88-.985 4.361 0 6.17.107.035.142-.036.212-.071-.74-1.88-.317-4.043.317-5.816.492-3.014 3.591-3.9 5.81-5.036l.105.143c-.599 1.56-1.478 3.05-1.338 4.929.07.319-.14.637 0 .85.599-.319.986-1.028 1.302-1.631.247-1.595-.667-3.581.952-4.752 2.887-1.134 5.598-2.623 8.942-2.659.106.106.353-.071.387.141-.704.78-1.724 1.526-2.042 2.483-1.126 1.56-1.09 4.22-.598 6.135.318 1.099-.633 1.702-1.091 2.553-.219.301-.281.818-.484 1.165l.695.076c.599-.638 1.162-1.418 1.198-2.34.079.339.334.61.668.71.246-.391-.211-.675-.247-1.065.564-.319.811.39 1.268.532.74.178 1.373.496 2.147.496l.247-.247c-.775-1.206-2.323-1.419-3.662-1.49-.703-1.17-.703-2.624-.634-4.042.142-.745.283-1.525.705-2.199.176-.497.669-.958.986-1.348a4.894 4.894 0 0 1 2.218-1.205h.105a.158.158 0 0 0 .035.106c-.95.745-1.055 1.773-1.619 2.695-.599.886-.88 2.092-.317 3.085.212.46.106 1.17.599 1.49.457-.638.493-1.454.739-2.164-.106-1.17-.809-2.27-.14-3.404.352-.886 1.09-1.241 1.9-1.56 1.937-.178 3.627.816 5.316 1.56.354.248.952.46 1.022.957a3.015 3.015 0 0 1-1.303 2.376c-.95.567-2.323.638-3.205-.035a2.433 2.433 0 0 1-.562-2.163c.388-.426.916-.78 1.55-.567.351.177.668.532 1.126.318a.447.447 0 0 0 .14-.567c-.386-.212-.527-.745-1.056-.815-.668-.107-1.479-.072-1.936.39a2.498 2.498 0 0 0-.81 2.482 3.033 3.033 0 0 0 2.183 2.27c1.62.39 3.31-.107 4.331-1.49.422-.461.528-.957.775-1.526 1.69 1.03 2.956 2.838 3.626 4.682 0 .603.177 1.241.035 1.773l1.232.106a1.18 1.18 0 0 1 .106-.85c.458-2.34 1.902-4.291 3.626-5.816.6-.355.458.46.6.71.527 1.347 1.76 2.304 3.063 2.695 1.478.247 2.886-.107 3.802-1.242.457-.851 1.022-2.093.246-2.979a2.43 2.43 0 0 0-1.936-.922c-.915 0-1.478.638-1.936 1.313 0 .283-.036.602.21.744.141 0 .423.035.529-.178.07-.531.528-.78.95-1.064.388-.212.81 0 1.127.213.387.32.458.851.493 1.384a2.136 2.136 0 0 1-1.161 1.667c-1.022.531-2.5.283-3.381-.32-.422-.461-.67-.993-.986-1.56-.07-.567-.282-1.064 0-1.632 1.55-.922 3.17-1.595 5.035-1.772.739.141 1.374.638 1.866 1.17 1.62 1.667-.351 4.043.775 5.886.422-.07.422-.637.598-.993.53-1.276-.14-2.66-.457-3.9-.424-.78-.67-1.454-1.339-2.093a.894.894 0 0 1 .423-.07c.74.495 1.55 1.063 2.148 1.843a9.531 9.531 0 0 1 1.373 5.816c-.28 1.063-1.408 1.56-2.289 1.95-.399.301-.724.69-.95 1.135.423.248 1.02 0 1.443-.177.669-.249 1.057-1.1 1.515-1.49.07.036.035.143.07.214.035.39-.176.921.176 1.027.176-.495.212-1.206.317-1.808.457.497.527 1.135.669 1.773.317.639.845 1.49 1.69 1.596.21-.319-.035-.639-.106-.922-.106-.887-.845-1.348-1.338-1.986-1.232-1.703-.669-4.362-1.62-6.276-.351-1.03-1.091-1.773-1.9-2.625l.14-.141c1.725-.036 3.169.531 4.753.85 1.937.958 4.753.746 5.669 3.263a9.31 9.31 0 0 0 2.007 3.83l.106-.071c.21-.412.21-.9 0-1.312-.212-1.773-1.761-2.199-2.572-3.688l.106-.142c.872.223 1.73.495 2.57.815 2.818.78 4.789 3.547 5.142 6.42a13.876 13.876 0 0 1-1.303 6.062c-.106.285-.599.604-.283.851.388-.283.458-.744.67-1.063 1.162-1.95 1.76-4.645 1.162-7.128-.036-.46-.563-.815-.318-1.276.162.166.371.277.6.319.211-.142.529-.142.67-.39.034-.213.174-.461 0-.64-.213-.317-.67-.317-1.022-.246a1.693 1.693 0 0 0-.423.78c-.352-.604-.704-1.383-1.268-1.88l.071-.106c1.585.532 3.027 1.312 4.648 1.737.365.245.792.38 1.232.39 1.373.532 2.887.745 4.33 1.1 1.057-.107 1.937.39 2.994.142v-.071l-.036.035c-.388-.496-1.232-.035-1.69-.39A26.562 26.562 0 0 1 92.4 62.39c.035-.107.176-.071.282-.071a.916.916 0 0 0 .562-.887.952.952 0 0 0-.81-.39.991.991 0 0 0-.528.603.879.879 0 0 0 .529.674c-.07.07-.212.036-.316.036-1.092-.498-2.15-.959-3.205-1.455-.387-.071-.704-.39-1.092-.461-.809-.39-1.62-.78-2.43-1.099-2.252-1.17-4.752-1.808-7.146-2.66-.528-.142-1.022-.284-1.514-.425-.88-.249-1.76-.462-2.64-.71-2.993-.744-7.008-.815-9.613.816-.422-.142-.67.531-.88.106.74-1.95 2.887-2.589 4.823-2.659 14.12-.142 27.358-.248 41.265-.461 1.62 0 3.205-.568 4.05-2.022.598-.85.703-2.305.246-3.262zM58.001 61.147c-.14.426-.422.78-.387 1.242l-.14.07c.105-.531-.424-.85-.283-1.418-.282-.425-.282-.957-.527-1.418-.317-.569.28-.816.527-1.206.494.213.67.673 1.021 1.1.212.602-.246 1.063-.211 1.63z" fill="#231F20" fill-rule="nonzero"/>
        <path d="M96.202 58.914c0 .105.212.14.14.318-1.23 1.1-2.956 1.42-4.717 1.49-.141.035-.282.142-.457.106-.105-.07-.141-.177-.07-.248a5.371 5.371 0 0 1 5.104-1.666zM90.534 59.48c.14.497-.175.78-.564.958a1.004 1.004 0 0 1-.774-.568c-.106-.282.14-.425.247-.602.28-.285.95-.285 1.091.213zM23.602 59.552a.73.73 0 0 1-.175.745.716.716 0 0 1-.635.177c-.247-.036-.387-.32-.457-.532 0-.319.176-.497.457-.674.282 0 .598-.035.81.284zM17.3 61.856v.249a2.744 2.744 0 0 1-2.289-.532c-.493-.71-1.056-1.419-1.866-1.773 0-.107-.212-.248 0-.32 1.76 0 2.817 1.42 4.155 2.376zM101.554 59.517c-.81 1.205-1.514 2.694-2.957 3.226-.247 0-.458.355-.67.107.564-1.348 1.761-2.801 3.135-3.37a1.15 1.15 0 0 1 .492.037zM25.644 59.942c.035.39-.246.46-.493.674-.281.035-.422-.178-.6-.39-.14-.356.178-.496.354-.674a.735.735 0 0 1 .74.39zM105.99 60.154c-.316.462-.176 1.136-.492 1.632-.705.815-1.304 1.737-2.43 1.915-.175-.354.247-.709.423-1.03.494-1.062 1.198-2.268 2.323-2.73l.176.213zM6.385 60.474c.106.248.211.496 0 .78a.828.828 0 0 1-.81.141.66.66 0 0 1-.281-.85c.211-.32.844-.496 1.09-.071zM4.378 60.899c.035.178.14.32.105.496a.827.827 0 0 1-.491.426c-.388.071-.634-.141-.81-.46a.691.691 0 0 1 .35-.745.717.717 0 0 1 .847.283zM8.532 61.112c.071.283.141.78-.28.85-.494.214-.776-.14-1.057-.424a.81.81 0 0 1 .422-.71.972.972 0 0 1 .915.284zM14.307 61.573c-.035.248.035.603-.247.674-.176.178-.493.107-.668.071-.071-.213-.459-.39-.247-.638.131-.168.3-.302.493-.39.211.105.53 0 .67.283h-.001zM109.37 61.821c-.105.248-.246.568-.528.568-.316-.035-.633-.07-.809-.391-.14-.39.176-.603.458-.708.351 0 .81.141.88.531zM102.928 61.998c.035.285-.282.497-.423.603-.493.213-.915-.141-1.093-.532a.912.912 0 0 1 .6-.638c.457-.036.704.213.916.567zM107.293 61.928c0 .24-.118.465-.316.602a.815.815 0 0 1-.846-.141c-.317-.284-.07-.533.141-.745.317-.178.915-.142 1.021.284zM5.47 62.53a.75.75 0 0 1-.422.887.809.809 0 0 1-.775-.497.665.665 0 0 1 .352-.744c.351-.107.634.107.844.354zM101.168 62.92a.782.782 0 0 1-.494.923c-.281.07-.458-.071-.669-.249-.14-.177-.317-.567-.035-.744.281-.532.985-.32 1.198.07zM24.411 63.31c.14.39-.28.462-.386.674-.141.07-.423.106-.528-.035-.177-.213-.387-.426-.282-.745.175-.142.246-.284.457-.354.388-.107.53.248.74.46zM108.736 63.559c.07.248-.14.354-.175.531a.945.945 0 0 1-.81.143c-.317-.178-.317-.461-.317-.78.211-.142.246-.32.493-.39.317 0 .704.141.81.496zM106.554 63.665c.14.425-.247.639-.528.745-.14.035-.352-.071-.388.142.916.461 1.479 1.206 2.183 1.88v.283c-1.267-.036-2.57-.355-3.486-1.347-.246-.178-.668-.178-.95-.426.458-.46 1.304-.284 1.937-.32.458-.496-.529-.85.07-1.275.211-.036.352-.25.634-.178.223.107.408.28.528.496zM92.153 63.7c.07.178-.14.39-.175.568a.706.706 0 0 1-.775.142c-.176-.248-.46-.461-.353-.816.282-.532 1.197-.425 1.303.106zM13.427 64.942c-.106.319-.247.531-.599.567a.696.696 0 0 1-.634-.425c-.035-.248.142-.39.177-.568.388-.319 1.09-.106 1.056.426zM16.28 64.481c0 .496-.53.78-.706 1.277-.528 1.17-1.478 2.233-2.816 2.34-.141-.32.458-.71.599-1.028.562-1.206 1.689-1.844 2.71-2.589h.212zM91.308 64.977c.035.39-.317.674-.599.816-.316.107-.563-.142-.739-.284-.281-.283-.105-.567.036-.85.423-.426 1.02-.072 1.302.318zM93.492 65.226a.875.875 0 0 1-.634.78c-.071-.106-.247-.036-.352-.071a.78.78 0 0 1-.459-.638c.177-.178.247-.461.494-.497.317-.035.845 0 .95.426zM21.736 65.19c.035.39-.246.603-.528.745a.689.689 0 0 1-.669-.426c-.07-.319.246-.532.422-.709.423-.142.53.177.775.39zM24.167 65.332a.841.841 0 0 1-.67.603c-.247-.07-.528-.142-.634-.426-.035-.354.247-.532.492-.709.352 0 .74.142.812.532zM101.062 67.814c.176.142.492.319.421.568-.562.248-1.02-.39-1.548-.497a7.269 7.269 0 0 1-1.83-2.837c.316-.32.668.07.95.178a6.947 6.947 0 0 1 2.007 2.588zM102.364 65.332c.1.257.074.545-.07.78-.212.354-.67.284-.986.213-.176-.213-.493-.496-.282-.816.106-.283.422-.354.67-.46.245-.036.421.177.668.283zM27.404 66.254c.036.283.106.71-.246.886a.683.683 0 0 1-.844-.425c-.176-.426.21-.497.422-.709.282-.071.457.07.668.248zM93.386 68.559c.52.745.836 1.613.915 2.518-.107.248.176.496-.035.673h-.14c-1.585-1.134-1.937-2.73-2.536-4.326a.29.29 0 0 1-.141-.354c.352-.32.598.319.95.425l.987 1.064zM31.981 67.354c-.035.035 0 .07.035.07-1.407.993-3.379 1.596-4.998.638a.269.269 0 0 1 .175-.318c1.022-.32 2.007-.816 3.1-.674l1.688.284zM23.953 67.53c-1.195.746-2.287 2.2-3.767 2.554-.281.106-.457.496-.808.284.634-1.916 2.71-2.944 4.576-3.121v.284zM91.308 69.126c.105.285 0 .675-.281.745a.486.486 0 0 1-.668 0c-.317-.142-.317-.46-.317-.71.104-.247.35-.282.527-.389.317.07.564.07.74.354zM88.386 69.304c-.212.497-.81.78-1.267.922-1.197.425-2.288-.142-3.345-.425.035-.284.387-.178.563-.356 1.162-.248 2.358-.496 3.59-.177a.372.372 0 0 1 .46.036zM23.953 70.332c-.104.142-.14.46-.422.567a.732.732 0 0 1-.703-.14c-.07-.215-.317-.391-.141-.64.07-.248.352-.318.563-.39a.751.751 0 0 1 .703.603zM26.031 70.651c-.105.213-.21.532-.491.674a.772.772 0 0 1-.706-.248.843.843 0 0 1-.105-.71c.07-.177.316-.213.493-.319.352-.035.669.32.81.603zM90.64 71.006a.94.94 0 0 1-.247.674.597.597 0 0 1-.774.142c-.246-.036-.317-.32-.423-.497-.211-.284.14-.461.247-.709a.766.766 0 0 1 1.196.39zM92.189 70.935c.035.177.141.354.07.496-.212.178-.353.638-.775.462-.21.07-.316-.213-.421-.284-.142-.355-.036-.887.42-.958.318-.106.53.178.706.284zM24.765 71.963a.961.961 0 0 1-.354.958c-.386.07-.88.07-1.02-.39-.036-.355 0-.816.423-1.029.353-.036.774.036.95.46zM26.77 71.822c-.07.992-.28 2.198-1.266 2.765-.564.107-1.128.64-1.69.284v-.177c.738-1.064 2.077-1.88 2.956-2.872zM85.112 72.637c.14.213-.106.39-.212.568-.21.247-.599.141-.844.035-.247-.107-.282-.461-.177-.71a.72.72 0 0 1 .458-.39c.318-.035.6.25.775.497zM30.292 74.268c.492.816.211 1.916.492 2.802-.598.07-.845-.603-1.232-.957-.774-1.064-.669-2.483-1.02-3.724a.186.186 0 0 1 .246-.071c.528.354.915 1.028 1.338 1.489-.07.248.21.248.176.461zM86.872 72.92c0 .285-.317.356-.493.532a1.29 1.29 0 0 1-.668-.319c-.107-.354.176-.46.351-.637a.585.585 0 0 1 .81.425zM91.063 76.077c0 .107-.036.319-.212.248h-.142c-1.02-.922-2.041-1.95-1.9-3.37l.21-.034c.951.816 2.008 1.702 2.044 3.156zM88.421 74.942a.823.823 0 0 1-.317.673c-.387.107-.985.072-1.056-.46-.035-.355.352-.532.529-.71.422-.106.704.178.844.497zM86.097 75.687c-.493 1.312-1.83 1.985-2.746 2.979-.176-.107-.106-.39-.07-.533.352-1.347 1.409-2.659 2.71-3.191.564.071 0 .461.106.745zM88.738 76.75c0 .32-.317.461-.492.639a1.032 1.032 0 0 1-.775-.39c-.036-.355.246-.461.457-.639.327-.07.661.09.81.39zM62.54 12.37a.877.877 0 0 1 0 1.754H52.097a.877.877 0 0 1 0-1.754H62.54zm-7.383 1.517c1.02 0 .055-1.238-.493-1.238h-1.02c-1.02 0-.055 1.238.492 1.238h1.021zm4.278 0c1.02 0 .055-1.238-.494-1.238h-1.02c-1.02 0-.055 1.238.494 1.238h1.02zm3.153-1.238h-.389c-1.02 0-.155 1.238.394 1.238.681 0 .724-1.238-.005-1.238zM61.624 24.35l1.996.765 1.96-.766-.775 2.936 1.553-.321-.53 1.78.53 1.708-1.378-.374.6 3.167-1.96-.764-1.996.764.812-3.167-1.59.446.425-1.78-.425-1.708 1.52.25-.742-2.937zm2.944 5.295c.448 0 .488-.617.488-1.15 0-1.21-.959 0-1.449-1.139-.358.961-1.342.071-1.342 1.104 0 .711-.004 1.185.702 1.185h1.601zm-1.955-1.089c0 .463.619.154 1.078.154.46 0 1.078.309 1.078-.154 0-.655-.619-.427-1.078-.427-.46 0-1.078-.228-1.078.427zM56.955 28.67v-.374l-.335-.064.262-.272-.162-.3.342.037.207-.364.203.358.348-.03-.164.3.263.271-.334.064v.373l-.316-.237-.314.237zM55.407 30.662v-.371l-.335-.064.262-.273-.162-.299.342.036.208-.363.203.358.347-.03-.163.298.262.273-.333.064v.371l-.316-.236-.315.236zM58.033 30.409v-.373l-.333-.063.262-.273-.163-.3.343.037.207-.363.203.358.347-.032-.161.3.26.273-.332.063v.373l-.317-.237-.316.237zM58.344 31.898v-.21l-.19-.037.149-.153-.093-.17.194.02.118-.204.114.202.196-.018-.092.17.148.153-.188.036v.211l-.178-.133-.178.133zM55.904 33.602v-.639l-.573-.108.449-.468-.278-.512.586.061.356-.622.348.614.595-.053-.278.512.447.468-.571.108v.639l-.54-.405-.541.405zM57.146.151l1.24 3.05 3.14-.925-1.593 2.877 2.675 1.898-3.227.539.195 3.29-2.43-2.207-2.431 2.206.196-3.289-3.227-.54 2.675-1.897-1.593-2.878 3.14.925 1.24-3.049zM45.786 68.539c-.373.139-.518.242-.427.629l.443 1.868c.082.346.107.892-.124 1.226-.275.4-.856.657-1.276.758-.306.074-.97.197-1.504-.028-.353-.151-.582-.313-.733-.946l-.463-1.957c-.117-.492-.3-.46-.7-.401l-.034-.147 2.36-.567.036.147c-.458.128-.673.186-.551.702l.463 1.957c.079.334.27 1.143 1.276.9 1.23-.294 1.031-1.194.942-1.57l-.423-1.786c-.084-.358-.215-.538-.822-.416l-.034-.147 1.536-.369.035.147zM49.285 68.93a1.504 1.504 0 0 0-1.613-.781c-.365.081-.712.343-.628.726.07.317.233.416.877.533l1.124.2a1.25 1.25 0 0 1 1.01.91c.113.517-.18 1.329-1.47 1.616-.664.15-1.025.02-1.242.067-.148.033-.159.148-.165.248l-.204.045-.32-1.453.202-.046c.272.564.826 1.137 1.716.939.842-.188.748-.778.73-.854-.086-.394-.447-.462-.943-.543l-.51-.084c-1.305-.214-1.417-.72-1.476-.99-.08-.36-.038-1.208 1.293-1.505.562-.125.935-.005 1.137-.05.161-.035.177-.131.187-.251l.21-.047.282 1.275-.197.045zM53.93 71.253l-2.552.244-.014-.149c.519-.086.69-.115.642-.619l-.301-3.163c-.497.073-1.231.173-1.284 1.148l-.208.02-.092-1.209 4.29-.412.129 1.205-.207.02c-.234-.947-.973-.907-1.47-.882l.3 3.162c.05.51.222.506.754.484l.014.15zM59.902 71.252l-1.472-.028-1.448-1.916-.194-.004-.023 1.182c-.01.482.147.503.622.567l-.005.15-2.424-.048.001-.15c.49-.04.633-.055.643-.543l.052-2.664c.01-.518-.212-.535-.62-.567l.003-.15 2.311.045c.503.01 2.022.087 2.002 1.1-.014.742-.757.915-1.146 1.01l1.41 1.745a.36.36 0 0 0 .29.12l-.002.15v.001zm-3.11-2.14c.94.011 1.316-.115 1.331-.897.012-.61-.276-.875-.851-.886-.395-.006-.41.06-.45.245l-.03 1.538z" fill="#231F20" fill-rule="nonzero"/>
        <path d="m64.614 71.858-2.308-.29.019-.15c.445.026.574.036.598-.161a3.056 3.056 0 0 0-.229-.836l-1.603-.201a3.571 3.571 0 0 0-.409.731c-.028.228.312.288.553.33l-.019.15-1.446-.18.02-.15c.389 0 .514-.191.783-.612l1.988-3.078.2.024 1.198 3.344c.241.68.33.898.674.929l-.019.15zm-1.997-1.685-.54-1.542-.85 1.369 1.39.173zM68.795 72.709l-4.085-.75.028-.148c.404.03.618.051.684-.31l.52-2.87c.07-.391-.216-.456-.53-.533l.026-.148 2.466.453-.028.148c-.498-.073-.718-.107-.812.415l-.507 2.799c-.052.285.095.36.568.448 1.067.196 1.552-.224 1.998-.834l.205.038-.533 1.292zM71.504 73.316l-2.46-.517.032-.148c.384.05.664.084.74-.282l.59-2.854c.08-.39-.248-.47-.568-.557l.031-.147 2.46.517-.03.147c-.334-.056-.672-.121-.755.28l-.59 2.853c-.079.378.2.455.58.56l-.03.148zM76.498 73.955l-2.316-.24.015-.15c.446.017.576.023.596-.174a3.13 3.13 0 0 0-.247-.832l-1.608-.166c-.16.23-.293.478-.393.74-.024.228.318.282.559.318l-.014.15-1.452-.15.016-.15c.39-.008.512-.2.772-.629l1.921-3.12.2.02 1.272 3.32c.256.674.35.89.693.914l-.014.15zm-2.035-1.641-.574-1.532-.82 1.387 1.394.145zM58.136 25.324c0-1.449-.811-.092-1.26-1.323-.329 1.041-1.306.165-1.306 1.284 0 .428.111.675.319.812v.428a.2.2 0 0 0 .199.2h1.537a.2.2 0 0 0 .2-.2v-.463a.943.943 0 0 0 .311-.738zm-1.254.277c-.422 0-.992.29-.992-.21 0-.71.481-.552.904-.552.422 0 1.079-.158 1.079.552 0 .5-.569.21-.99.21zM70.735 43.092a.59.59 0 1 0-.664-.586.628.628 0 0 0 .664.586zM67.614 21.646a3.65 3.65 0 0 0-.312.623.317.317 0 1 0 .631 0c0-.012-.32-.623-.32-.623zM46.348 21.646a3.654 3.654 0 0 0-.311.623.317.317 0 1 0 .631 0c0-.012-.32-.623-.32-.623zM51.664 21.646a3.658 3.658 0 0 0-.31.623.317.317 0 1 0 .63 0c0-.012-.32-.623-.32-.623zM56.98 21.646a3.654 3.654 0 0 0-.31.623.317.317 0 1 0 .63 0c0-.012-.32-.623-.32-.623zM62.296 21.646a3.658 3.658 0 0 0-.31.623.317.317 0 1 0 .632 0c0-.012-.322-.623-.322-.623zM46.358 28.945c.123.197.227.406.31.623a.317.317 0 1 1-.631 0c0-.011.321-.623.321-.623zM46.358 36.037c.123.198.227.406.31.623a.317.317 0 1 1-.631 0c0-.01.321-.623.321-.623zM47.208 41.652c.124.197.229.406.312.623a.318.318 0 1 1-.632 0c0-.01.32-.623.32-.623zM51.668 44.636c.123.198.227.406.311.624a.317.317 0 1 1-.631 0c0-.01.32-.624.32-.624zM67.884 28.945a3.654 3.654 0 0 0-.31.623.316.316 0 1 0 .63 0c0-.011-.32-.623-.32-.623zM67.884 36.037a3.678 3.678 0 0 0-.31.623.316.316 0 1 0 .63 0c0-.01-.32-.623-.32-.623zM67.033 41.652a3.654 3.654 0 0 0-.311.623.317.317 0 1 0 .631 0c0-.01-.32-.623-.32-.623zM62.573 44.636a3.664 3.664 0 0 0-.31.624.317.317 0 1 0 .63 0c0-.01-.32-.624-.32-.624zM57.145 47.8a3.655 3.655 0 0 0-.31.622.317.317 0 1 0 .63 0c0-.011-.32-.623-.32-.623zM65.796 37.22c.067.1.234.134.446.061l.201-.572c.017-.04-.232-.267-.38-.23-.568.134-1.17.202-1.504.74.025.362.225.689.535.876.2-.067.234.135.368.236a.237.237 0 0 1-.234.304c-.402-.405-1.103.135-1.405-.372.134-.504.402-1.078-.034-1.55.034-.1.202-.201.1-.302-.166-.471-.668-.101-.97-.101-.5-.068-.902.202-1.204.606a.936.936 0 0 0 .268.505c.134-.033.201 0 .234.136l-.334.202a.719.719 0 0 1 .134.37c-.235.101-.469-.235-.57-.404 0-.27.035-.741-.334-.81-.1.023-.197.056-.29.1a.969.969 0 0 0-.137.557c.017.205.06.408.132.602 0 0 1.03.765 1.265 1.235-.301.606-.301 1.448-1.003 1.785a.561.561 0 0 0-.2.54l.166.135c.436-.236 1.271-.303 1.205-1.045.15-.332.365-.63.635-.876a.695.695 0 0 1 .77.37 1.319 1.319 0 0 1-.904 1.01c-.066.069-.033.17-.033.271.134.236.502.135.702.101.57-.371.804-1.045 1.305-1.246.067.337-.669.438-.2.774.3-.067.702.034.903-.37-.235-.572.802-.843.167-1.348 0-.505.534-.707.5-1.246-.2-.539-.836-.539-1.002-1.044a.738.738 0 0 1 .702 0zM41.365 43.35a.59.59 0 1 0-.664-.585c.023.344.32.605.664.585zM6.882 63.495a.628.628 0 1 0-.653-.628.64.64 0 0 0 .653.628zM29.302 68.777h-.186l-.182-.235h-.025v.147c0 .061.022.064.075.072v.016h-.3v-.016c.061-.008.079-.01.079-.072v-.333c0-.065-.029-.066-.079-.07v-.019h.286c.064 0 .257.005.257.134 0 .091-.093.114-.14.128l.18.215c.008.01.021.016.035.017v.016zm-.393-.261c.118 0 .165-.017.165-.115a.096.096 0 0 0-.108-.109c-.053 0-.053.011-.057.033v.19z" fill="#231F20" fill-rule="nonzero"/>
        <path d="M28.92 68.303a.045.045 0 0 0-.04-.033c-.012 0-.023.006-.023.016s.005.014.021.021l.031.013a.038.038 0 0 1 .023.032c0 .017-.013.038-.052.038a.166.166 0 0 1-.035-.007c-.005 0-.006.004-.007.007h-.006v-.044h.006a.044.044 0 0 0 .044.038c.025 0 .026-.017.026-.02 0-.012-.01-.016-.024-.021l-.014-.006c-.036-.015-.036-.03-.036-.038 0-.01.007-.035.046-.035l.033.006c.005 0 .006-.003.008-.006h.006v.039h-.006zM29.141 68.272a.016.016 0 0 0-.014.01l-.042.107h-.005l-.035-.083h-.001l-.04.083h-.005l-.044-.106a.016.016 0 0 0-.015-.011v-.005H29v.005c-.007 0-.013 0-.013.007 0 .002 0 .004.002.006l.025.064.025-.054-.008-.017c-.002-.003-.005-.006-.016-.006v-.005h.067v.005c-.01 0-.016 0-.016.006 0 .004.002.007.003.01l.022.059.024-.06a.013.013 0 0 0 .002-.007c0-.008-.008-.008-.015-.008v-.005h.038v.005zM29.15 68.774a.271.271 0 0 0 .243-.195.187.187 0 0 1-.082.017.15.15 0 0 1-.164-.162.179.179 0 0 1 .196-.168.203.203 0 0 1 .207.226c0 .135-.129.281-.4.304v-.022zm.21-.211c.015 0 .04-.006.04-.013 0-.013.007-.052.007-.067 0-.148-.014-.196-.071-.196-.054 0-.054.048-.054.107 0 .106.018.169.079.169z" fill="#231F20" fill-rule="nonzero"/>
        <path d="M29.268 68.304c.015 0 .03.002.045.008a.038.038 0 0 1 .022.033c0 .024-.022.042-.06.042-.016 0-.03-.005-.03-.015a.012.012 0 0 1 .013-.011c.014 0 .026.016.04.016a.019.019 0 0 0 .02-.019c0-.01-.011-.019-.022-.023a.144.144 0 0 0-.045-.007l.02-.06h.067l-.009.021h-.057l-.004.015zM69.38 20.803v-.013H44.843v.013h-.005l.02 18.752c0 1.912.81 3.584 1.928 4.099l9.437 5.992a1.14 1.14 0 0 0 1.629.088l9.582-6.08c1.12-.515 1.93-2.187 1.93-4.1l.02-18.75h-.004zm-.692 19.003c-.128 1.419-.61 2.6-1.592 3.269l-9.25 5.88h-.05c-.42.34-1.02.336-1.436-.009l-9.235-5.871c-.98-.668-1.463-1.85-1.593-3.27V21.464h23.156v18.343z" fill="#231F20" fill-rule="nonzero"/>
        <path d="m60.414 48.134.298-.143a1.549 1.549 0 0 0-.298.143zM41.905 73.765l-2.313.268-.016-.15c.44-.08.567-.101.544-.299a3.04 3.04 0 0 0-.42-.758l-1.605.186c-.107.26-.183.53-.225.808.026.228.371.206.615.19l.017.15-1.449.168-.017-.15c.38-.092.456-.307.62-.781l1.206-3.463.2-.024 1.952 2.964c.396.603.532.794.874.742l.017.149zm-2.338-1.161-.888-1.37-.504 1.532 1.392-.162z" fill="#231F20" fill-rule="nonzero"/>
        <path d="M82.541 64.977a3.705 3.705 0 0 0-2.394-2.198c-1.127-.249-2.324-.071-3.063.78-1.267 1.028-.387 2.73-.352 4.113 0 .284.035.497-.247.639-5.105-.461-9.858-1.738-14.928-2.27-1.166-.2-2.334-.148-3.441-.383l-1.417-.15c-4.402.143-8.803.392-12.922 1.455-.88.284-1.867.354-2.746.674-.634-.106-1.162.354-1.76.177l-1.16.271a.968.968 0 0 1-.39-.023c-.563-1.454 1.127-2.34.598-3.758-.457-.816-1.373-1.597-2.429-1.454a2.943 2.943 0 0 0-2.817 1.454c-.81 1.772.212 3.617.528 5.355-.07.566.564 1.204 0 1.666-1.127-.78-2.606-1.206-3.979-.816-.421.213-1.196-.07-1.407.426 1.514.815 3.45.71 5.14.638.211-.071.352-.107.528.036.142.922-.176 2.163.388 2.978.633.852 1.69 1.064 2.71 1.17 3.24-.106 6.127-1.063 9.084-1.808.459-.035.81-.283 1.303-.283a25.729 25.729 0 0 1 5-.674 8.817 8.817 0 0 0-1.48 3.192c-.421.957.74 1.099 1.092 1.63-1.092.32-1.866 1.065-2.887 1.49-2.253-.072-4.155.78-6.267 1.028-.035.462.74.32.81.78-.106.32-.422.355-.669.532-.035.213 0 .249.211.284.212-.248.67-.071.88-.32.705 0 1.303-.212 1.972-.247.6-.249 1.267-.284 1.796-.71.739-.212 1.197-.709 1.936-.922 1.056 0 2.007-.354 2.993-.425v.213c-.81 1.312-1.654 2.66-2.5 3.9a.398.398 0 0 0 .246.568c.468.113.962.036 1.373-.213.74-1.276 1.409-2.483 2.008-3.794.247-1.206 1.126-1.845 2.007-2.66.14-.071.352-.284.493-.071a16.16 16.16 0 0 0-1.69 2.482c-.283.993-.353 2.27.528 3.085.423.355 1.056.249 1.62.284 1.372-.709 3.133.426 4.19-.922.632-.107.738.638 1.09.993.6.178 1.233.78 1.832.355-.036-.39-.459-.745-.67-1.1-.422-.744-.95-1.347-1.337-2.021-.177-.496-.493-.816-.565-1.313.635.214 1.198.64 1.903.746.598.248 1.338.212 1.901.567.458.603 1.161.958 1.76 1.347.879.426 1.866.497 2.781.852.353.035.882.319 1.127 0a1.484 1.484 0 0 0-.527-.39c-.107-.462.633-.213.88-.568a.5.5 0 0 0-.409-.268c-.505-.27-1.759-.365-2.092-.547a8.234 8.234 0 0 1-1.231-.39c-2.113 0-3.275-1.916-4.965-2.624.387-.355.985-.639 1.232-1.17.352-.569.391-1.276.106-1.88-.317-1.1-1.726-.958-2.535-1.56l.106-.107c1.372-.07 2.57.248 3.802.496 3.38.46 6.514 1.738 10.035 1.809 1.936 0 4.365.106 5.316-1.773.176-1.1.387-2.199.564-3.298.422-1.773 1.583-3.404 1.408-5.355zM44.515 81.148l-.491-.46c.245-.32.773-.143 1.16-.356.916-.284 1.973-.638 2.994-.425-1.056.851-2.43.957-3.663 1.241zm21.982-.566c.841.38 2.535.751 3.755.89-.11.481-.969.03-.868.707-1.092-.426-2.36-.639-3.169-1.49.07-.035.142-.141.282-.107zM33.461 65.51c.105-.638.245-1.312.844-1.773a2.97 2.97 0 0 1 2.783.107c.257.156.455.392.564.673.144.59-.062 1.21-.53 1.596h-.351c0-.568 0-1.135.21-1.596-.035-.426-.387-.461-.668-.638-.6-.177-1.128.106-1.585.355-.352.425-.669.957-.457 1.56.246.39.034.922.175 1.347l-.106.142c-.421-.46-.985-.957-.879-1.773zm1.654 1.014c.528.39 1.267.212 1.902.319.105.39.105.886-.177 1.206-.598-.142-1.373-.071-1.69-.638.071-.249-.105-.603-.035-.887zm-.105-1.191c.105-.284 0-.71.387-.78.246-.07.634-.07.668.213-.02.418-.08.834-.175 1.241-.494.035-.74-.248-.88-.674zM51.52 76.715c-.174-1.24.32-2.305 1.129-3.191.492-.106 1.056-.213 1.514.07-.916.249-2.078.461-2.29 1.632.036.46-.105.71.106 1.099.388.674 1.268.39 1.76.922a.457.457 0 0 1-.316.425c-.6-.354-1.338-.496-1.902-.957zm-1.266 2.447c.845-.355 1.725-1.1 2.676-.78-.669.532-1.76.744-2.676.78zm3.345.355a27.183 27.183 0 0 1-1.726 3.333c-.07.177-.353.213-.562.249 0-.497.492-.887.704-1.313.739-.957.95-1.985 1.795-2.907.211.212-.21.354-.21.638zm.88-2.057v.142h-.07v-.177h.14a.213.213 0 0 0-.14.035h.07zm-.316-.958a8.402 8.402 0 0 1-1.69-.425c-.353-.355 0-.745 0-1.135.492-.78 1.9-1.17 2.57-.461a3.768 3.768 0 0 1-.88 2.02zm.773 0c.12-.52.31-1.02.564-1.489a2.973 2.973 0 0 1-.564 1.489zm.388-2.872c-.457-.106-.705-.638-1.196-.638a2.81 2.81 0 0 1 1.337-.036c.176.249-.106.462-.14.674zm.422 1.064h-.035v-.39h.035v.39zm.036 1.63c-.036-.14.07-.318.106-.495.175-.178.351.142.422.248a.523.523 0 0 1-.528.248zm.528-2.198c.176-.496.212-.921.529-1.312.323-.028.648.02.95.142.07.71.95 1.667 0 2.27-.317.142-.776.46-1.127.142-.457-.39-.529-.745-.352-1.241zm2.57-.992c-.07-.32.317-.071.458-.213l1.092.071c-.565-.071-1.269 1.241-1.55.142zm1.76.46c-.422.143-.739.64-1.16.746.21-.391.738-.781 1.16-.745zm-1.479 2.2v.107h-.035v-.108h.035zm.071 2.163c-.035.07.035.177-.07.248l-.81-.639a.854.854 0 0 1 .88.39zm-.95-1.1a.263.263 0 0 1 .317 0h-.317zm-.494-.532c.14-.212.317-.532.564-.532 0 .036.035.072.07.108-.178.185-.395.33-.634.424zm-.809-.07h-.14l.21-.213c.106.07-.035.142-.07.213zm.105 1.347c.458-.496.88.283 1.057.674.529.78 1.9 1.49 1.373 2.553-.67.603-1.726.035-2.465.496-.387-.035-1.056.071-1.267-.319.387-1.134.74-2.411 1.302-3.404zm-.985.674.176-.284a15.04 15.04 0 0 1-1.163 2.553c-.21-.85.67-1.525.987-2.27zm1.55 4.22c-.67.035-1.69.425-2.325-.142.035-.284-.281-.426-.246-.71.563-.212 1.055.462 1.584-.035.81.036 1.655-.107 2.464.07.388.107.987-.638 1.056.107-.28 1.17-1.689.355-2.533.71zm2.042-5.107v-.106h.07v.106h-.07zm.21 2.234c.036.355.388.497.177.816a1.085 1.085 0 0 1-.177-.816zm.986 2.128-.176.071c-.176-.142-.106-.532-.07-.745.21.177.388.425.246.674zm1.761.851c-.036.106-.212.106-.282.035-1.056-1.347-1.55-2.765-2.218-4.255l.141-.035c.845 1.383 1.514 2.908 2.36 4.255zm1.303-3.263a.143.143 0 0 0-.071.143c-1.021.035-1.69-.567-2.464-1.1l-.037-.177c.952.07 1.726.674 2.572 1.134zm-.917-4.716c.423.107.458.567.494.921a2.092 2.092 0 0 1-2.57 1.88c.845-.035 1.76-.354 2.112-1.205l-.036-1.596zm-.773-.142c.175.496.492.958.316 1.56-.351.674-1.056.674-1.69.816a1.103 1.103 0 0 1-.81-.248.365.365 0 0 0-.14-.355c.105-.46-.81-.922-.176-1.312.562-.532 1.9-1.737 2.5-.461zm17.885-2.588c-.281.354-.035.92-.387 1.24 0 .639-.529.958-.986 1.206-4.19.922-8.309-.496-12.357-1.206-5.67-1.24-12.288-1.595-18.063-.283a83.724 83.724 0 0 0-7.957 1.88c-1.62.212-3.38.46-4.93-.036-1.266-.603-.74-2.234-1.127-3.369.07-.886-.245-1.596-.28-2.446a2.102 2.102 0 0 1-.141-.923c.527.071 1.056.461 1.62.603 2.957.567 5.597-.39 8.343-.887a60.811 60.811 0 0 1 8.134-1.24c3.169-.036 6.408-.213 9.436.319.985.035 1.83.283 2.78.354 1.973.249 3.804.78 5.81.922a9.63 9.63 0 0 0 1.057.178c3.168.496 6.724 1.383 9.752 0 0 1.276-.527 2.446-.704 3.688zm-.985-4.327c.034.567-.494.425-.775.639h-.845c-.176-.284-.105-.71-.105-.993.562.106 1.196.106 1.725.354zm-.388-.886c.388-.39-.106-2.625.986-1.171 0 .284.035.71-.247.922-.176.142-.457.426-.739.249zm2.852-.355a2.021 2.021 0 0 1-1.514 1.206c.035-.851.81-1.455.529-2.412-.459-.674-1.374-.886-2.219-.709-.317.213-.175.567-.282.887l-.14 1.17c-.705 0-.74-.638-.95-1.135.034-.745.351-1.49 1.09-1.844a2.424 2.424 0 0 1 2.042.07c.459.107.987.32 1.162.746.528.496.388 1.383.282 2.02zM260.163 15.286c.937 0 1.054.084 1.171.268l3.012 4.585c1.255 1.924 1.606 2.476 1.974 3.38-.067-.803-.1-2.694-.1-3.866v-4.116c0-.184.15-.25 1.07-.25h.118c.87 0 1.088.066 1.088.25v11.546c0 .2-.084.25-.97.25h-.101c-.803 0-1.004-.05-1.138-.267l-3.012-4.585c-1.288-1.957-1.74-2.71-1.991-3.396.084.786.117 2.727.117 3.882v4.116c0 .2-.2.25-1.07.25h-.101c-.92 0-1.105-.033-1.105-.25V15.537c0-.217.05-.25.954-.25h.084zM274.368 15.286c2.142 0 3.648.469 4.618 1.49.92.953 1.523 2.526 1.523 4.484 0 2.008-.569 3.681-1.757 4.802-1.02.97-2.443 1.272-4.3 1.272h-2.594c-.652 0-.753-.034-.753-.251V15.537c0-.217.1-.25.753-.25h2.51zm-.837 10.107h.87c.97 0 1.941-.168 2.594-.77.686-.652 1.037-1.84 1.037-3.33 0-1.355-.284-2.41-.786-3.012-.602-.72-1.439-1.054-2.778-1.054h-.937v8.166zM287.017 15.286c.151 0 .201.084.201.82v.084c0 .736-.05.82-.2.82h-1.088v8.6h1.087c.151 0 .201.084.201.82v.084c0 .736-.05.82-.2.82h-4.602c-.15 0-.2-.084-.2-.82v-.084c0-.736.05-.82.2-.82h1.088v-8.6h-1.088c-.15 0-.2-.084-.2-.82v-.084c0-.736.05-.82.2-.82h4.601zM296.103 17.277c-.301.62-.402.653-.603.52-.736-.453-1.305-.704-2.074-.704-.954 0-1.573.57-1.573 1.356 0 .853.92 1.271 1.874 1.757 1.439.736 3.028 1.556 3.028 3.664 0 2.125-1.372 3.631-4.066 3.631-1.455 0-2.794-.485-3.597-1.138-.218-.184-.235-.368.05-.92l.2-.402c.285-.535.436-.669.653-.518.803.569 1.674.954 2.544.954 1.087 0 1.807-.502 1.807-1.423 0-1.037-.954-1.439-1.958-1.94-1.405-.687-2.945-1.49-2.945-3.465 0-2.242 1.774-3.53 3.866-3.53a5.339 5.339 0 0 1 3.028.887c.251.184.218.351-.067.937l-.167.334zM311.73 28.79c-.301.334-.485.317-.602.217a15.046 15.046 0 0 1-1.607-1.807 5.251 5.251 0 0 1-1.807.301c-2.878 0-4.886-2.041-4.886-6.024 0-3.915 2.075-6.358 5.271-6.358 2.878 0 4.886 2.025 4.886 6.007 0 2.493-.837 4.384-2.259 5.438a8.298 8.298 0 0 0 1.372 1.506c.117.1.05.251-.217.552l-.15.168zm-3.112-4.886c.284-.118.502-.134.586.033.227.476.478.94.752 1.389.887-.82 1.39-2.226 1.39-4.133 0-3.046-1.222-4.719-3.314-4.719-2.192 0-3.564 1.79-3.564 4.936 0 3.046 1.221 4.736 3.313 4.736.359.006.715-.051 1.054-.168a9.648 9.648 0 0 1-.836-1.606c-.05-.134.1-.25.384-.368l.235-.1zM315.829 18.499c.636 0 .703.067.703.2v4.385c0 1.322.05 2.008.418 2.46.301.368.803.569 1.49.569.652 0 1.422-.218 1.823-.603.352-.334.536-.837.536-2.677V18.7c0-.117.1-.201.669-.201h.15c.57 0 .687.067.687.2v5.707c0 1.137.033 2.309.033 2.727 0 .134-.05.2-.686.2h-.067c-.586 0-.686-.066-.686-.2l-.033-.72h-.017c-.62.687-1.54 1.088-2.778 1.088a2.961 2.961 0 0 1-2.225-.887c-.586-.619-.82-1.489-.82-2.844V18.7c0-.117.033-.201.669-.201h.134zM331.34 18.499c.635 0 .652.067.652.2 0 .402-.033 1.473-.033 2.544v2.343c0 1.54.067 2.627.117 3.547 0 .134-.084.2-.602.2h-.067c-.519 0-.62-.05-.636-.2l-.1-.77a3.367 3.367 0 0 1-2.577 1.138c-2.444 0-3.581-2.024-3.581-4.434 0-2.861 1.64-4.735 3.848-4.735a2.826 2.826 0 0 1 2.26 1.07l.083-.702c.016-.201.1-.201.602-.201h.034zm-.887 2.326c-.385-.603-1.138-1.138-1.924-1.138-1.54 0-2.443 1.288-2.443 3.296 0 1.573.552 3.18 2.275 3.18a2.29 2.29 0 0 0 1.673-.653c.352-.385.419-.853.419-2.31v-2.375zM335.338 14.617c.536 0 .653.05.686.217.084.469.1 2.477.1 4.953v5.556c0 .619.084.836.636.836h.168c.083 0 .1.067.1.452v.05c0 .435 0 .502-.1.536a2.503 2.503 0 0 1-.787.134 1.378 1.378 0 0 1-1.238-.57c-.218-.317-.285-.87-.285-1.756v-5.606c0-1.757-.016-3.932-.1-4.585-.017-.167.15-.217.72-.217h.1zM339.872 14.734a1.054 1.054 0 1 1 0 2.108 1.054 1.054 0 0 1 0-2.108zm.067 3.765c.67 0 .686.084.686.2v8.434c0 .117-.016.2-.686.2h-.1c-.67 0-.72-.066-.72-.2V18.7c0-.134.05-.201.72-.201h.1zM344.49 16.022c.67 0 .686.084.686.201V18.5h2.109c.117 0 .15.084.15.519v.134c0 .451-.033.535-.15.535h-2.109v4.936c0 .636.05 1.054.268 1.289.228.217.539.327.853.3.388-.018.77-.091 1.138-.217.168-.05.218.017.301.335l.05.218c.084.35.084.451-.05.535a3.59 3.59 0 0 1-1.757.418c-.752 0-1.305-.2-1.673-.552-.485-.452-.636-1.088-.636-2.209v-5.053h-1.054c-.117 0-.15-.084-.15-.536v-.133c0-.435.033-.52.15-.52h1.054v-2.275c0-.134.05-.2.72-.2h.1zM351.885 22.85c.364.934.672 1.89.92 2.86.185-.769.52-1.756.854-2.743l1.49-4.284c.05-.15.234-.184.752-.184.653 0 .837.05.77.234l-3.162 8.802c-.435 1.221-.904 2.125-1.423 2.677a3.404 3.404 0 0 1-3.832.72c-.183-.101-.15-.235-.05-.536l.067-.201c.134-.401.184-.468.368-.418.293.093.597.144.904.15 1.104 0 1.757-.602 2.46-2.493l-3.33-8.701c-.084-.2.117-.234.786-.234.603 0 .803.05.854.184l1.572 4.166zM265.484 38.577c.636 0 .653.067.653.2 0 .402-.034 1.473-.034 2.544v2.343c0 1.54.067 2.627.117 3.547 0 .134-.083.201-.602.201h-.067c-.519 0-.62-.05-.636-.2l-.1-.77a3.367 3.367 0 0 1-2.577 1.137c-2.443 0-3.581-2.024-3.581-4.434 0-2.861 1.64-4.735 3.849-4.735a2.826 2.826 0 0 1 2.258 1.07l.084-.702c.017-.2.1-.2.603-.2h.033zm-.887 2.326c-.385-.602-1.138-1.138-1.924-1.138-1.54 0-2.443 1.289-2.443 3.296 0 1.573.552 3.18 2.275 3.18a2.29 2.29 0 0 0 1.674-.653c.351-.385.418-.853.418-2.31v-2.375zM269.6 38.577c.602 0 .685.05.685.2l.017.754h.017c.585-.686 1.69-1.121 2.727-1.121a3.155 3.155 0 0 1 2.293.887c.602.619.853 1.489.853 2.844v5.07c0 .117-.017.201-.686.201h-.1c-.67 0-.72-.067-.72-.2v-4.368c0-1.355-.05-1.991-.452-2.46-.318-.385-.853-.552-1.59-.552-.618 0-1.371.218-1.773.602-.2.184-.385.469-.452 1.188-.033.469-.05 1.322-.05 2.293v3.296c0 .117-.017.201-.686.201h-.1c-.67 0-.72-.067-.72-.2v-5.707c0-1.137-.033-2.309-.033-2.727 0-.134.05-.2.686-.2h.083zM285.043 34.695c.535 0 .686.05.686.218V45.32c0 .837.134.904.586.904.1 0 .15.1.15.452v.117c0 .401-.05.519-.15.552a2.063 2.063 0 0 1-.737.1c-.502 0-.953-.318-1.154-.97h-.017c-.418.569-1.355 1.104-2.56 1.104-2.209 0-3.581-1.656-3.581-4.4 0-2.51 1.305-4.77 4.066-4.77.668.014 1.32.204 1.891.553v-4.05c0-.167.15-.217.72-.217h.1zm-.82 5.706a3.01 3.01 0 0 0-1.807-.62c-1.573 0-2.577 1.323-2.577 3.347 0 2.058 1.004 3.113 2.31 3.113a2.318 2.318 0 0 0 1.589-.57c.385-.384.485-.936.485-2.342v-2.928zM299.03 36.787c-.183.334-.368.401-.468.334a3.768 3.768 0 0 0-2.091-.585c-1.423 0-2.042.886-2.042 1.773 0 2.443 5.355 2.059 5.355 5.823 0 2.042-1.322 3.447-3.849 3.447-1.389 0-2.644-.385-3.38-.953-.117-.1-.1-.335.1-.686l.118-.201c.167-.268.368-.385.468-.318a4.892 4.892 0 0 0 2.51.82c1.372 0 2.46-.67 2.46-1.908 0-2.878-5.338-2.242-5.338-5.806 0-2.109 1.59-3.33 3.48-3.33.97 0 2.192.301 2.862.853.1.084.033.335-.1.586l-.084.15zM308.166 38.577c.636 0 .653.067.653.2 0 .402-.034 1.473-.034 2.544v2.343c0 1.54.067 2.627.117 3.547 0 .134-.083.201-.602.201h-.067c-.518 0-.619-.05-.636-.2l-.1-.77a3.367 3.367 0 0 1-2.577 1.137c-2.443 0-3.58-2.024-3.58-4.434 0-2.861 1.64-4.735 3.848-4.735a2.826 2.826 0 0 1 2.259 1.07l.083-.702c.017-.2.1-.2.603-.2h.033zm-.887 2.326c-.385-.602-1.138-1.138-1.924-1.138-1.54 0-2.443 1.289-2.443 3.296 0 1.573.552 3.18 2.276 3.18a2.29 2.29 0 0 0 1.673-.653c.351-.385.418-.853.418-2.31v-2.375zM311.947 38.577v-.401c0-2.36.987-3.648 3.045-3.648a3.946 3.946 0 0 1 1.69.368c.1.05.118.134 0 .586l-.016.067c-.1.418-.168.535-.301.485a3.941 3.941 0 0 0-1.322-.251c-1.272 0-1.59.887-1.59 2.376v.418h1.941c.117 0 .15.084.15.536v.133c0 .436-.033.52-.15.52h-1.941v7.445c0 .117-.017.201-.686.201h-.1c-.67 0-.72-.067-.72-.2v-7.447h-1.054c-.117 0-.15-.084-.15-.519v-.134c0-.451.033-.535.15-.535h1.054zM318.188 43.53c.05.92.318 1.64.837 2.075.451.401 1.104.602 1.974.602a5.194 5.194 0 0 0 2.209-.535c.15-.067.251-.1.418.318l.084.2c.184.436.167.536.033.62a5.988 5.988 0 0 1-3.028.77c-2.71 0-4.1-1.69-4.1-4.385 0-2.81 1.54-4.785 4.016-4.785 1.49 0 2.51.736 3.062 1.84.388.838.577 1.754.552 2.677 0 .502-.033.603-.167.603h-5.89zm4.518-1.238c-.017-1.255-.653-2.51-2.058-2.51-1.222 0-2.176.786-2.41 2.51h4.468zM332.628 38.577c.535 0 .652.05.67.218.066.82.1 3.179.1 4.15v2.777c0 1.456-.084 2.376-.318 3.146-.486 1.59-2.008 2.46-3.698 2.46-.837 0-1.992-.201-2.527-.52-.1-.05-.117-.2.017-.585l.067-.2c.134-.402.2-.47.284-.47.139.03.273.075.402.135.509.186 1.047.283 1.59.284 1.422 0 2.308-.602 2.576-1.908.076-.531.11-1.069.1-1.606-.602.653-1.59.954-2.442.954-2.41 0-3.565-1.857-3.565-4.317.017-2.895 1.657-4.685 3.816-4.685.953 0 1.773.401 2.175 1.07h.016v-.685c0-.151.118-.218.686-.218h.05zm-.737 4.083c0-1.121-.05-1.556-.25-1.941-.268-.519-.854-.904-1.808-.904-1.455 0-2.376 1.272-2.376 3.213 0 1.94.753 3.029 2.293 3.029a2.86 2.86 0 0 0 2.141-.988v-2.41zM336.71 38.577c.636 0 .703.067.703.2v4.385c0 1.322.05 2.008.418 2.46.301.368.803.568 1.49.568.652 0 1.422-.217 1.823-.602.352-.335.536-.837.536-2.677v-4.133c0-.117.1-.2.669-.2h.15c.57 0 .687.066.687.2v5.706c0 1.138.033 2.309.033 2.727 0 .134-.05.2-.686.2h-.067c-.586 0-.686-.066-.686-.2l-.033-.72h-.017c-.62.687-1.54 1.088-2.778 1.088a2.961 2.961 0 0 1-2.225-.887c-.586-.619-.82-1.489-.82-2.844v-5.07c0-.117.033-.2.669-.2h.134zM352.22 38.577c.636 0 .653.067.653.2 0 .402-.033 1.473-.033 2.544v2.343c0 1.54.067 2.627.117 3.547 0 .134-.084.201-.602.201h-.067c-.519 0-.62-.05-.636-.2l-.1-.77a3.367 3.367 0 0 1-2.577 1.137c-2.444 0-3.581-2.024-3.581-4.434 0-2.861 1.64-4.735 3.848-4.735a2.826 2.826 0 0 1 2.26 1.07l.083-.702c.016-.2.1-.2.602-.2h.034zm-.886 2.326c-.385-.602-1.138-1.138-1.924-1.138-1.54 0-2.443 1.289-2.443 3.296 0 1.573.552 3.18 2.275 3.18a2.29 2.29 0 0 0 1.673-.653c.352-.385.419-.853.419-2.31v-2.375zM356.32 38.577c.602 0 .686.05.686.2l.033 1.724c.636-1.405 1.556-2.024 2.443-2.024.118 0 .236.01.351.033.15.034.168.084.168.469v.25c0 .486-.017.62-.184.62-1.188 0-1.79.736-2.276 1.522-.252.44-.39.934-.402 1.44-.033.468-.05 1.505-.05 2.476v1.924c0 .117-.017.201-.686.201h-.1c-.67 0-.72-.067-.72-.2v-5.707c0-1.137-.033-2.309-.033-2.727 0-.134.05-.2.686-.2h.083zM367.73 34.695c.536 0 .687.05.687.218V45.32c0 .837.134.904.585.904.1 0 .151.1.151.452v.117c0 .401-.05.519-.15.552a2.063 2.063 0 0 1-.737.1c-.502 0-.954-.318-1.154-.97h-.017c-.418.569-1.355 1.104-2.56 1.104-2.209 0-3.581-1.656-3.581-4.4 0-2.51 1.305-4.77 4.066-4.77.668.014 1.32.204 1.891.553v-4.05c0-.167.15-.217.72-.217h.1zm-.819 5.706a3.01 3.01 0 0 0-1.807-.62c-1.573 0-2.577 1.323-2.577 3.347 0 2.058 1.004 3.113 2.31 3.113a2.318 2.318 0 0 0 1.589-.57c.385-.384.485-.936.485-2.342v-2.928zM376.548 40.1c-.3.435-.384.435-.502.334-.619-.435-1.204-.736-1.94-.736-.687 0-1.674.268-1.674 1.188 0 .904.937 1.138 1.74 1.339 1.372.351 2.828.853 2.828 2.593 0 1.79-1.506 2.761-3.347 2.761a4.986 4.986 0 0 1-2.744-.837c-.167-.116-.117-.217.067-.602l.084-.184c.217-.468.284-.485.502-.351a4.597 4.597 0 0 0 2.175.67c.77 0 1.84-.386 1.84-1.356 0-.904-1.07-1.205-1.924-1.39-.886-.2-1.539-.434-1.99-.853a2.19 2.19 0 0 1-.67-1.623c0-1.64 1.422-2.643 3.096-2.643.962-.018 1.9.308 2.643.92.134.117.168.268-.067.602l-.117.168zM266.722 57.551c-.301.535-.385.653-.586.519-.77-.519-1.355-.753-2.175-.753-1.857 0-2.962 1.456-2.962 4.2 0 2.577.954 4.083 2.979 4.083.789-.01 1.564-.211 2.259-.586.25-.134.318-.05.569.485l.184.402c.25.552.284.67 0 .837a7.08 7.08 0 0 1-3.38.92c-3.247 0-5.104-2.31-5.104-6.074 0-3.765 1.974-6.308 5.27-6.308a5.178 5.178 0 0 1 3.214 1.004c.284.217.267.317-.05.886l-.218.385zM276.443 62.906c0 3.028-1.506 4.752-4.3 4.752-2.493 0-4.016-1.523-4.016-4.418 0-3.028 1.506-4.752 4.3-4.752 2.494 0 4.016 1.523 4.016 4.418zm-5.956.234c0 1.623.535 2.543 1.706 2.543 1.322 0 1.891-1.004 1.891-2.677 0-1.623-.535-2.544-1.707-2.544-1.322 0-1.89 1.004-1.89 2.678zM279.338 58.655c.82 0 .97.034 1.037.218.062.236.107.477.134.72a3.17 3.17 0 0 1 2.36-1.105c1.037 0 2.04.452 2.51 1.322a3.344 3.344 0 0 1 2.66-1.322c.97 0 1.74.335 2.242.904.552.619.786 1.422.786 2.694v5.153c0 .184-.1.251-1.087.251h-.084c-1.088 0-1.121-.067-1.121-.25V62.72c0-1.154-.067-1.505-.335-1.807a1.378 1.378 0 0 0-1.054-.385 2.094 2.094 0 0 0-1.02.251c-.352.218-.436.486-.47.887-.033.385-.033 1.004-.033 1.64v3.932c0 .184-.1.251-1.087.251h-.084c-1.088 0-1.121-.067-1.121-.25V62.72c0-1.154-.067-1.505-.335-1.807a1.378 1.378 0 0 0-1.054-.385 2.094 2.094 0 0 0-1.02.251c-.352.218-.436.486-.47.887-.033.385-.033 1.004-.033 1.64v3.932c0 .184-.1.251-1.087.251h-.084c-1.088 0-1.121-.067-1.121-.25V62.62c0-1.305-.05-2.76-.117-3.664-.017-.235.05-.302 1.004-.302h.084zM294.396 58.655c.82 0 .97.034 1.038.218.062.236.106.477.134.72a3.17 3.17 0 0 1 2.359-1.105c1.037 0 2.041.452 2.51 1.322a3.344 3.344 0 0 1 2.66-1.322c.97 0 1.74.335 2.243.904.552.619.786 1.422.786 2.694v5.153c0 .184-.1.251-1.088.251h-.083c-1.088 0-1.121-.067-1.121-.25V62.72c0-1.154-.067-1.505-.335-1.807a1.378 1.378 0 0 0-1.054-.385 2.093 2.093 0 0 0-1.02.251c-.352.218-.436.486-.47.887-.033.385-.033 1.004-.033 1.64v3.932c0 .184-.1.251-1.088.251h-.083c-1.088 0-1.121-.067-1.121-.25V62.72c0-1.154-.067-1.505-.335-1.807a1.378 1.378 0 0 0-1.054-.385 2.094 2.094 0 0 0-1.021.251c-.351.218-.435.486-.468.887-.034.385-.034 1.004-.034 1.64v3.932c0 .184-.1.251-1.088.251h-.083c-1.088 0-1.121-.067-1.121-.25V62.62c0-1.305-.05-2.76-.118-3.664-.016-.235.05-.302 1.004-.302h.084zM309.622 54.573a1.373 1.373 0 1 1-1.405 1.372 1.386 1.386 0 0 1 1.405-1.372zm.1 4.082c.988 0 1.088.067 1.088.251v8.333c0 .184-.1.251-1.087.251h-.084c-1.088 0-1.121-.067-1.121-.25v-8.334c0-.184.033-.25 1.121-.25h.084zM313.136 65.6c.284-.503.435-.653.619-.52a4.051 4.051 0 0 0 2.142.72c.887 0 1.405-.334 1.405-.786 0-1.305-4.283-.502-4.283-3.698 0-1.757 1.506-2.828 3.464-2.828a4.515 4.515 0 0 1 2.76.837c.168.117.134.25-.2.82l-.151.234c-.301.519-.418.602-.602.485a3.074 3.074 0 0 0-1.707-.535 1.727 1.727 0 0 0-1.088.284.618.618 0 0 0-.234.485c0 1.255 4.284.603 4.284 3.615-.001.762-.309 1.492-.854 2.024-.619.603-1.54.92-2.76.92-1.29 0-2.427-.418-3.113-1.003-.134-.117-.117-.268.15-.753l.168-.301zM321.3 65.6c.285-.503.436-.653.62-.52a4.05 4.05 0 0 0 2.142.72c.887 0 1.405-.334 1.405-.786 0-1.305-4.283-.502-4.283-3.698 0-1.757 1.506-2.828 3.463-2.828a4.515 4.515 0 0 1 2.761.837c.168.117.134.25-.2.82l-.151.234c-.301.519-.418.602-.603.485a3.074 3.074 0 0 0-1.706-.535 1.727 1.727 0 0 0-1.088.284.618.618 0 0 0-.234.485c0 1.255 4.284.603 4.284 3.615-.001.762-.309 1.492-.854 2.024-.619.603-1.54.92-2.76.92-1.29 0-2.427-.418-3.113-1.003-.134-.117-.117-.268.15-.753l.168-.301zM330.754 54.573a1.373 1.373 0 1 1-1.405 1.372 1.386 1.386 0 0 1 1.405-1.372zm.1 4.082c.988 0 1.088.067 1.088.251v8.333c0 .184-.1.251-1.087.251h-.084c-1.088 0-1.12-.067-1.12-.25v-8.334c0-.184.033-.25 1.12-.25h.084zM342.216 62.906c0 3.028-1.506 4.752-4.3 4.752-2.494 0-4.016-1.523-4.016-4.418 0-3.028 1.506-4.752 4.3-4.752 2.493 0 4.016 1.523 4.016 4.418zm-5.957.234c0 1.623.535 2.543 1.707 2.543 1.322 0 1.89-1.004 1.89-2.677 0-1.623-.535-2.544-1.706-2.544-1.322 0-1.89 1.004-1.89 2.678zM345.11 58.655c.82 0 .97.034 1.038.218.055.22.095.443.117.67a3.198 3.198 0 0 1 2.426-1.055c1.02 0 1.824.335 2.326.904.552.619.786 1.422.786 2.694v5.153c0 .184-.1.251-1.087.251h-.084c-1.087 0-1.12-.067-1.12-.25V62.72c0-1.154-.068-1.505-.336-1.807a1.49 1.49 0 0 0-1.12-.385 2.267 2.267 0 0 0-1.122.268c-.351.218-.435.486-.468.887-.034.385-.034 1.004-.034 1.64v3.915c0 .184-.1.251-1.088.251h-.083c-1.088 0-1.121-.067-1.121-.25V62.62c0-1.305-.05-2.76-.118-3.664-.016-.235.05-.302 1.004-.302h.084z" fill="#231F20" fill-rule="nonzero"/>
        <path d="M200.003 57.036a47.847 47.847 0 0 0 17.827-31.203 48.043 48.043 0 0 0-35.643.081 47.848 47.848 0 0 0 17.816 31.122z"/>
        <path d="M217.83 25.833c-2.882 21.283-19.576 38.047-40.847 41.018a68.214 68.214 0 0 0 23.018 16.46 68.252 68.252 0 0 0 38.066-42.177 48.036 48.036 0 0 0-20.237-15.3z" fill="#612166" fill-rule="nonzero"/>
        <path d="M240.794 13.662a68.18 68.18 0 0 0-55.72-11.828 47.775 47.775 0 0 0-3.328 17.575c0 2.176.148 4.35.441 6.505 19.931-8.046 42.782-1.823 55.88 15.22a68.022 68.022 0 0 0 3.097-20.35c0-2.38-.124-4.756-.37-7.122z" fill="#C22990" fill-rule="nonzero"/>
        <path d="M182.187 25.914a48.314 48.314 0 0 1-.441-6.505 47.774 47.774 0 0 1 3.327-17.575 67.744 67.744 0 0 0-25.544 11.749 68.817 68.817 0 0 0-.394 7.33 67.79 67.79 0 0 0 17.848 45.938 47.67 47.67 0 0 0 23.02-9.815 47.848 47.848 0 0 1-17.816-31.122z" fill="#C22990" fill-rule="nonzero"/>
        <path d="M182.187 25.914a48.314 48.314 0 0 1-.441-6.505 47.774 47.774 0 0 1 3.327-17.575 67.744 67.744 0 0 0-25.544 11.749 68.817 68.817 0 0 0-.394 7.33 67.79 67.79 0 0 0 17.848 45.938 47.67 47.67 0 0 0 23.02-9.815 47.848 47.848 0 0 1-17.816-31.122z" fill="#923A7F" fill-rule="nonzero" opacity=".25" style="mix-blend-mode:multiply"/>
        <path d="M240.794 13.662a68.18 68.18 0 0 0-55.72-11.828 47.775 47.775 0 0 0-3.328 17.575c0 2.176.148 4.35.441 6.505 19.931-8.046 42.782-1.823 55.88 15.22a68.022 68.022 0 0 0 3.097-20.35c0-2.38-.124-4.756-.37-7.122z" fill="url(#a)" fill-rule="nonzero" opacity=".5" style="mix-blend-mode:multiply"/>
        <path fill="#000" d="M136.814 0h1.398v84.139h-1.398z"/>
    </g>
</svg>
