<svg id="Layer_1" data-name="Layer 1" xmlns="http://www.w3.org/2000/svg" xmlns:xlink="http://www.w3.org/1999/xlink" viewBox="0 0 820.36 820.31"><defs><style>.cls-1{fill:none;}.cls-2{clip-path:url(#clip-path);}.cls-3{fill:#6b2975;}.cls-4{fill:#fff;}.cls-5{fill:#8cc63f;}.cls-6{fill:#6b2976;}.cls-7{fill:#6c2976;}</style><clipPath id="clip-path" transform="translate(-34.61 -38.03)"><rect class="cls-1" x="33.67" y="36.75" width="821.55" height="823.31"/></clipPath></defs><title>I Support NDIS_2020</title><g class="cls-2"><g class="cls-2"><path class="cls-3" d="M855,448.39c-.33,228.35-186.23,411.42-412.92,410C217,856.88,33.92,673.46,34.61,446.79,35.3,221.79,218.19,37,446.77,38c225.76,1,408.11,184.21,408.2,410.35" transform="translate(-34.61 -38.03)"/><path class="cls-4" d="M454.72,494.47a5.64,5.64,0,0,0,.2-2.6q0-41.16,0-82.32c0-4.15-.33-5.53,5.73-6.31,7.48-1,15-.67,22.53-.64a94.7,94.7,0,0,1,12.93.57,17.13,17.13,0,0,1,4.18,1,3.23,3.23,0,0,1,2.2,3.12c0,.8,0,1.6,0,2.4q0,103.91,0,207.83a44.3,44.3,0,0,0,.26,5c.42,3.66,2.23,5.55,5.81,6.37a20.47,20.47,0,0,0,4,.36c2.61.07,3.6.91,4,3.49a30.64,30.64,0,0,1,.38,4.06,189.18,189.18,0,0,1-.31,20.62c-.05.63-.15,1.27-.24,1.9a5.25,5.25,0,0,1-4,4.53,77.7,77.7,0,0,1-17.62,3.35,51.62,51.62,0,0,1-15-.69c-9.43-2.09-16.67-7.1-20.88-16-.87.07-1.22.78-1.72,1.25-9.92,9.49-21.81,14.88-35.31,16.89a74.33,74.33,0,0,1-35.73-3.06c-15.74-5.46-27.31-15.92-35.49-30.29-5.72-10-9.09-20.91-11.12-32.24a154.42,154.42,0,0,1-1.82-35.86c.88-15.92,4-31.37,10.9-45.88,5.72-12,13.64-22.17,24.63-29.79a67.75,67.75,0,0,1,32.33-11.64,66.63,66.63,0,0,1,28.63,2.89A61.35,61.35,0,0,1,453,493.32c.54.43,1,1.08,1.76,1.15" transform="translate(-34.61 -38.03)"/><path class="cls-4" d="M205.85,501a70.2,70.2,0,0,1,7.31-6.91,66.51,66.51,0,0,1,35.08-14.12,77.76,77.76,0,0,1,30.39,2.67c19.61,5.81,32,18.91,37.85,38.32A96.27,96.27,0,0,1,320,541.43c.45,5.83.42,11.66.42,17.5v99.84c0,.64,0,1.28,0,1.92-.06,2.34-.76,3.33-3,4a26.53,26.53,0,0,1-6.38,1,291.39,291.39,0,0,1-29.26,0,24.65,24.65,0,0,1-6.15-1c-2.07-.64-2.67-1.5-2.72-3.67,0-1,0-2.08,0-3.12V569.41c0-6.64,0-13.27-.49-19.9a58.78,58.78,0,0,0-1.45-10c-1.91-7.63-6.51-12.82-14-15.46a41,41,0,0,0-11.74-2.2,53.18,53.18,0,0,0-20.05,2.83c-.61.21-1.19.47-1.78.71-8.35,3.33-12.7,9.51-13.43,18.44-.77,9.34-.87,18.69-.88,28q0,43.56,0,87.12c0,.56,0,1.12,0,1.68-.05,2.34-.75,3.32-3,4a24.65,24.65,0,0,1-5.9,1,279.48,279.48,0,0,1-30.22,0,22.32,22.32,0,0,1-5.67-.92c-2-.66-2.65-1.54-2.72-3.7,0-.56,0-1.12,0-1.68q0-47.52,0-95c0-17.44-.44-34.87-1.13-52.29-.27-6.87-.79-13.73-1.18-20.6-.06-1.19,0-2.4-.07-3.59a3.34,3.34,0,0,1,2.44-3.45,15.28,15.28,0,0,1,4.67-1,211.85,211.85,0,0,1,29.49,0,5.85,5.85,0,0,1,.72.07c5.16.72,6.34,1.76,7.42,6.89.54,2.57.88,5.19,1.29,7.8a8.69,8.69,0,0,0,.65,2.8" transform="translate(-34.61 -38.03)"/><path class="cls-4" d="M656.7,669.48a108.06,108.06,0,0,1-45.45-11.36,83.23,83.23,0,0,1-13.49-8.67,5.66,5.66,0,0,1-2.07-6.78,30.46,30.46,0,0,1,1.75-4.45c2.82-5.65,5.88-11.18,9.22-16.54a27,27,0,0,1,3.48-4.57c2-2.1,4.13-2.52,6.81-.73A89.72,89.72,0,0,0,645.26,629c9.86,2.44,19.74,2.86,29.65.32a26.93,26.93,0,0,0,8.92-4,15.24,15.24,0,0,0,4.29-4.47,11,11,0,0,0-1.5-13.88,21.84,21.84,0,0,0-5.85-4.13c-5.43-2.8-11.27-4.48-17.09-6.19-8.95-2.64-18-5.08-26.63-8.66a72.88,72.88,0,0,1-18.64-10.69,45,45,0,0,1-16.34-28.18,58.93,58.93,0,0,1,2.25-30c4.13-11.58,11.7-20.43,21.91-27.11a74.24,74.24,0,0,1,28.44-10.89A107.67,107.67,0,0,1,707,484.76a78.64,78.64,0,0,1,22.3,11.43c3.2,2.36,3.57,3.6,2.12,7.35a62.88,62.88,0,0,1-5.1,9.76c-2.05,3.43-4.21,6.79-6.34,10.17a26.6,26.6,0,0,1-3.17,4.22c-2.28,2.4-3.91,2.63-6.77.88A85.45,85.45,0,0,0,697.28,522a58.46,58.46,0,0,0-36.22-2.6,19.88,19.88,0,0,0-9.76,5.32c-4.45,4.52-5.7,12.61,1.14,17.83a39,39,0,0,0,9.7,5.16c7.29,2.85,14.87,4.85,22.33,7.19a146.15,146.15,0,0,1,23.63,9.19,60.36,60.36,0,0,1,15.55,11.1c7.78,7.93,11.74,17.53,12.54,28.56a58,58,0,0,1-13,41.76c-7.9,9.87-18.28,16.07-30.25,19.76-11,3.38-22.22,4.41-36.27,4.21" transform="translate(-34.61 -38.03)"/><path class="cls-4" d="M535.69,574.53V489.59c0-4.45.59-5.13,5.09-5.83a84.85,84.85,0,0,1,12.44-.8c7,0,14.07-.17,21.1.38a26.84,26.84,0,0,1,5.43.86c2.78.81,3.36,1.58,3.41,4.41,0,.56,0,1.12,0,1.68V659.2c0,4.42-.84,5.41-5.26,6.07a124.31,124.31,0,0,1-15.79.85c-5.76.12-11.51-.11-17.27-.38a26,26,0,0,1-6.38-1c-2.12-.65-2.67-1.42-2.77-3.64,0-.63,0-1.27,0-1.92Z" transform="translate(-34.61 -38.03)"/><path class="cls-5" d="M589.37,433a30.57,30.57,0,1,1-30.58-30.45A30.53,30.53,0,0,1,589.37,433" transform="translate(-34.61 -38.03)"/><path class="cls-4" d="M335.73,260.79a19.29,19.29,0,0,1,4.86-3.77,19.85,19.85,0,0,1,27.84,9.43,38.94,38.94,0,0,1-.32,29.4,22.79,22.79,0,0,1-30.6,11.46c-.47-.23-.91-.72-1.57-.43a5.62,5.62,0,0,0-.15,2.31c0,6.56,0,13.11,0,19.67,0,2.64-.15,2.79-2.87,2.83-1.36,0-2.72.05-4.08,0-1.77-.1-2.05-.43-2.12-2.17,0-.31,0-.63,0-.95l-.12-70c0-.48,0-.95,0-1.43a1.16,1.16,0,0,1,1.15-1.28,34.92,34.92,0,0,1,6.22,0c1,.08,1.35.68,1.33,1.62s0,2.08,0,3.11l.43.27" transform="translate(-34.61 -38.03)"/><path class="cls-4" d="M392.37,260.78a19.48,19.48,0,0,1,4.87-3.76,19.85,19.85,0,0,1,27.83,9.44,38.94,38.94,0,0,1-.32,29.4,22.79,22.79,0,0,1-30.61,11.44c-.47-.22-.91-.72-1.57-.42a8.77,8.77,0,0,0-.14,2.8c0,6.48,0,12.95,0,19.43,0,2.26-.21,2.5-2.41,2.57-1.51.05-3,.06-4.55,0-1.76-.09-2-.44-2.11-2.18,0-.32,0-.64,0-1l-.12-70c0-.48,0-1,0-1.44a1.16,1.16,0,0,1,1.16-1.26,34.92,34.92,0,0,1,6.22,0c1,.08,1.34.7,1.32,1.63s0,2.08,0,3.11l.43.25" transform="translate(-34.61 -38.03)"/><path class="cls-4" d="M640.29,260.48a24.06,24.06,0,0,1,18.45-5.66,16.76,16.76,0,0,1,15.39,13.83,42.51,42.51,0,0,1,.7,8.34q0,14.28,0,28.54c0,2.65-.15,2.83-2.85,2.91-1.51.05-3-.07-4.55-.11-1.22,0-1.67-.68-1.6-1.85,0-.8,0-1.6,0-2.4-.12-9.91.26-19.82-.28-29.73-.44-8-4-11.32-12-11.25a18.94,18.94,0,0,0-7.65,1.73,8.79,8.79,0,0,0-5.36,7.37c-.65,4.62-.43,9.26-.48,13.89-.07,6.55,0,13.11,0,19.66,0,2.33-.21,2.58-2.58,2.68a34.55,34.55,0,0,1-4.55-.07c-1.75-.16-1.87-.37-1.94-2.05,0-.48,0-1,0-1.44V235.8c0-.32,0-.64,0-1,0-2.09.27-2.38,2.3-2.48,1.44-.06,2.88-.05,4.32,0,2.18.08,2.45.36,2.45,2.55,0,7.67,0,15.35,0,23a5.31,5.31,0,0,0,.26,2.55" transform="translate(-34.61 -38.03)"/><path class="cls-4" d="M695.8,285.14c-.14,8.54,4.49,14.51,12.12,15.71a26.85,26.85,0,0,0,11.65-.65,49.62,49.62,0,0,0,5.41-1.91c1.84-.76,2.11-.65,2.95,1.15a26.92,26.92,0,0,1,1.25,3.11c.49,1.51.31,1.94-1.09,2.72a31.7,31.7,0,0,1-10.61,3.61,38.31,38.31,0,0,1-13.59-.12c-7.92-1.58-13.26-6.24-15.81-13.8a35.6,35.6,0,0,1,1.31-27.11c5.13-11.08,15.9-15.22,27.46-12.3,5.31,1.34,9.06,4.94,11.56,9.78,2.94,5.71,3.65,11.86,3.37,18.17-.07,1.55-.23,1.63-2.23,1.64H695.8Z" transform="translate(-34.61 -38.03)"/><path class="cls-4" d="M461.6,254.72a25,25,0,0,1,7.36.85,19.28,19.28,0,0,1,13.55,13.12,37.57,37.57,0,0,1-.8,27c-3.39,8.21-9.8,12.53-18.55,13.54a30,30,0,0,1-9.78-.42,19.18,19.18,0,0,1-14.09-11.51c-2.66-5.84-3-12-2.54-18.32a32.63,32.63,0,0,1,2.22-9.78c3.61-8.87,10.26-13.58,19.75-14.37.4,0,.8-.06,1.2-.07.56,0,1.12,0,1.68,0" transform="translate(-34.61 -38.03)"/><path class="cls-4" d="M302.53,303.48c-.29.21-.56.37-.79.57-6,5.21-13,6.32-20.45,4.81-7.17-1.46-11.24-6.29-12.72-13.37a36.66,36.66,0,0,1-.64-7.39V258.36c0-2.46.1-2.58,2.52-2.66,1.6,0,3.19,0,4.79.05a1.5,1.5,0,0,1,1.68,1.81c0,.56,0,1.12,0,1.68,0,8.07,0,16.15,0,24.22,0,2.64.11,5.28.29,7.91.41,6.19,3.73,9.44,9.92,9.76A19.54,19.54,0,0,0,296,299.6a8.9,8.9,0,0,0,5.68-7.14,65.48,65.48,0,0,0,.68-10.27c.06-7.68,0-15.35,0-23,0-.56,0-1.12,0-1.68a1.49,1.49,0,0,1,1.56-1.71,37.44,37.44,0,0,1,6,0,1.36,1.36,0,0,1,1.43,1.54c0,.64,0,1.28,0,1.92q0,18.35.09,36.69c0,3.43.14,6.87.16,10.3,0,1.76-.16,2-1.85,2.14a21.48,21.48,0,0,1-5.49-.1,1.37,1.37,0,0,1-1.31-1.42,8.27,8.27,0,0,0-.47-3.37" transform="translate(-34.61 -38.03)"/><path class="cls-4" d="M239.16,254.72a23.15,23.15,0,0,1,14.74,4.66c2.13,1.61,2.22,2.33.74,4.59-2.44,3.7-2.46,3.73-6.32,1.41s-8-3.44-12.61-2.34a11.35,11.35,0,0,0-3.53,1.45,6,6,0,0,0-.54,9.95,14,14,0,0,0,5.41,2.48c2.46.68,4.93,1.32,7.39,2a23.13,23.13,0,0,1,4.64,1.91,14,14,0,0,1,5.74,19.53,15.84,15.84,0,0,1-9.68,7.73c-8.52,2.59-16.59,1.34-24.17-3.23-1.72-1-1.75-1.2-.95-3.09.54-1.24,1.15-2.46,1.75-3.67a1.46,1.46,0,0,1,2.36-.65,33.26,33.26,0,0,0,7.47,3.18,17,17,0,0,0,10.84-.2,9.24,9.24,0,0,0,4-2.6,6.2,6.2,0,0,0-.6-9,13.65,13.65,0,0,0-5.52-2.77c-1.93-.53-3.88-.94-5.81-1.46-1.46-.39-2.91-.84-4.34-1.34-5.37-1.89-8.78-5.5-9.42-11.27a14.19,14.19,0,0,1,6-13.59,19.38,19.38,0,0,1,12.45-3.73" transform="translate(-34.61 -38.03)"/><path class="cls-4" d="M171.05,236.48c3.59,0,7.19,0,10.79,0,1.86,0,2,.18,2.15,2.05.37,4.37.12,4.63-4.14,4.67-1.25,0-2.81-.57-3.68.32s-.29,2.44-.29,3.69q0,25.66,0,51.32v1.2c0,2,0,2,2.17,2,1.44,0,2.88,0,4.32,0a1.35,1.35,0,0,1,1.57,1.38c0,.23.05.47.07.71.36,4.37.13,4.63-4.17,4.63H160.64c-2.39,0-2.41,0-2.45-2.4,0-1,0-1.92,0-2.88a1.26,1.26,0,0,1,1.47-1.43c1.76,0,3.52,0,5.28,0,1,0,1.45-.4,1.36-1.42,0-.48,0-1,0-1.44v-53c0-.4,0-.8,0-1.2.13-1.11-.28-1.6-1.46-1.55-1.68.07-3.36,0-5,0-1.11,0-1.52-.47-1.63-1.56-.48-5.06-.42-5.15,4.72-5.15Z" transform="translate(-34.61 -38.03)"/><path class="cls-4" d="M534.43,280.53c0-5.27,0-10.55,0-15.82,0-1.8,0-1.81-1.87-1.84-1.2,0-2.4,0-3.6,0s-1.67-.41-1.67-1.53c0-1.36,0-2.71,0-4.07s.65-1.66,1.82-1.61,2.56,0,3.83,0,1.56-.36,1.54-1.52c-.06-3.6,0-7.19,0-10.79,0-2.31.15-2.46,2.39-2.56,1.36-.06,2.72,0,4.08,0,2.42.08,2.59.26,2.6,2.63,0,3.28,0,6.55,0,9.83,0,2.65-.13,2.4,2.51,2.41,3,0,5.92,0,8.88,0,1.9,0,2,.13,2.09,2.06a28.8,28.8,0,0,1,0,3.35c-.1,1.53-.32,1.74-1.93,1.76-3.2,0-6.39,0-9.59,0-1.91,0-1.94,0-1.93,2q0,14.26,0,28.54a21,21,0,0,0,.12,2.63c.43,3.52,2.33,5.22,5.86,5.4a21.66,21.66,0,0,0,6.6-1c1.82-.47,2-.4,2.55,1.38.12.38.19.78.28,1.16.8,3.51.61,4-2.71,5.12a21.94,21.94,0,0,1-13.43.59,10.61,10.61,0,0,1-7.91-9,55.65,55.65,0,0,1-.48-9.56c0-3.2,0-6.4,0-9.6" transform="translate(-34.61 -38.03)"/><path class="cls-4" d="M605.46,279.86v13.43c0,.32,0,.64,0,1,.19,5.64,2.63,7.77,8.26,7.1a38.26,38.26,0,0,0,4.44-1c1.71-.41,1.81-.39,2.37,1.32.2.61.31,1.24.45,1.86.62,2.78.49,3.18-2.07,4.19a21.41,21.41,0,0,1-14.31.88,10.51,10.51,0,0,1-7.77-8.83,41,41,0,0,1-.5-7.17V265.06c0-2.17,0-2.18-2.25-2.19-1,0-2.08,0-3.12,0-1.2.06-1.8-.43-1.79-1.66s0-2.56,0-3.83.46-1.77,1.71-1.71,2.56,0,3.83,0,1.68-.39,1.65-1.65c-.07-3.6,0-7.19,0-10.79,0-2.13.18-2.33,2.29-2.42,1.43-.07,2.88-.06,4.31,0,2.27.09,2.45.29,2.47,2.51,0,3.2,0,6.39,0,9.59,0,3-.27,2.75,2.65,2.75s5.75,0,8.63,0c2,0,2.11.12,2.21,2.19,0,.79,0,1.59,0,2.39-.08,2.53-.13,2.59-2.58,2.6-3,0-6.07,0-9.11,0-1.77,0-1.8,0-1.8,1.88,0,5,0,10.07,0,15.11Z" transform="translate(-34.61 -38.03)"/><path class="cls-4" d="M505.77,265.89c.79-1.28,1.49-2.51,2.29-3.67,2.33-3.4,5.26-6,9.38-7a9.72,9.72,0,0,1,1.16-.27c3.83-.49,4.48.08,4.48,3.91v.24c-.06,1.27.38,2.72-.36,3.76s-2.24.46-3.39.68a13,13,0,0,0-7.22,4A20.88,20.88,0,0,0,506,281c-.48,8-.2,16-.32,24,0,.64,0,1.28,0,1.92,0,.88-.45,1.29-1.29,1.41a24.44,24.44,0,0,1-6.45,0,1.38,1.38,0,0,1-1.32-1.65c0-.56,0-1.12,0-1.68l-.12-46.29a12,12,0,0,0,0-1.2c-.1-1.29.63-1.71,1.75-1.72,1.68,0,3.36-.08,5,0s1.88.23,1.93,2c.06,2.15.07,4.31.11,6.47a2.06,2.06,0,0,0,.45,1.68" transform="translate(-34.61 -38.03)"/><path class="cls-6" d="M454.84,572.53q0,16.68,0,33.35a29.23,29.23,0,0,1-.89,6.64,16.19,16.19,0,0,1-7.49,10.41,38.23,38.23,0,0,1-13.6,5.11,44.72,44.72,0,0,1-22-1.12,27.73,27.73,0,0,1-15.08-11.22,51.93,51.93,0,0,1-7.65-19.49c-2-10.36-2-20.81-1.13-31.28a77.92,77.92,0,0,1,4.45-21.28,41.5,41.5,0,0,1,6.2-11.3c5.44-6.9,12.61-10.6,21.28-11.6,14.35-1.64,25.7,3.91,35.07,14.4a4.43,4.43,0,0,1,1,3.31q0,17,0,34.07Z" transform="translate(-34.61 -38.03)"/><path class="cls-6" d="M335.78,284.38c.1-3.82-.17-8.37.37-12.91a8.21,8.21,0,0,1,4.47-6.64,15.33,15.33,0,0,1,10.2-1.71c3.87.69,6.56,3.11,8.43,6.49a19.7,19.7,0,0,1,2.19,7.53,29.22,29.22,0,0,1-1.3,13.7c-1.78,4.79-4.78,8.51-10,9.84a16.06,16.06,0,0,1-13.25-2.4,2.47,2.47,0,0,1-1.17-2.39c.05-3.59,0-7.19,0-11.51" transform="translate(-34.61 -38.03)"/><path class="cls-6" d="M392.42,284.39c.1-3.82-.17-8.38.37-12.92a8.21,8.21,0,0,1,4.47-6.64,15.33,15.33,0,0,1,10.2-1.71c3.87.69,6.56,3.11,8.43,6.49a19.7,19.7,0,0,1,2.19,7.53,29.22,29.22,0,0,1-1.3,13.7c-1.78,4.79-4.78,8.51-10,9.84a16.07,16.07,0,0,1-13.25-2.4,2.48,2.48,0,0,1-1.17-2.39c.05-3.59,0-7.19,0-11.5" transform="translate(-34.61 -38.03)"/><path class="cls-7" d="M709.26,277.76c-3.83,0-7.66,0-11.49,0-1.74,0-1.85-.11-1.52-1.76,1.16-5.9,3.79-10.67,10-12.54,6.81-2,13,1.11,15.3,7.8a20.87,20.87,0,0,1,1,4.43c.23,2,.14,2.06-1.78,2.07-3.83,0-7.66,0-11.49,0" transform="translate(-34.61 -38.03)"/><path class="cls-6" d="M475,282.09a25.88,25.88,0,0,1-2.21,11.08c-3.5,7.7-10.86,9.18-16.46,7.85a11.66,11.66,0,0,1-7.63-6.06,19.7,19.7,0,0,1-2.29-7.51c-.64-5.45-.6-10.84,1.64-16,3-6.91,9.24-10.09,16.57-8.43,4.07.92,6.69,3.59,8.33,7.27a27.69,27.69,0,0,1,2.05,11.8" transform="translate(-34.61 -38.03)"/></g></g></svg>