<?xml version="1.0" encoding="UTF-8"?>
<!-- Generator: Adobe Illustrator 27.9.0, SVG Export Plug-In . SVG Version: 6.00 Build 0)  -->
<svg xmlns="http://www.w3.org/2000/svg" xmlns:xlink="http://www.w3.org/1999/xlink" version="1.1" id="Layer_1" x="0px" y="0px" viewBox="0 0 1327.5 595.3" xml:space="preserve">
<path fill="#6A2875" d="M1043.629,24.89l-638.091,0.786C514.6,78.662,589.495,184.438,589.495,306.365  c0,2.203-0.001,6.568-0.001,6.568v254.438l454.135-0.554c149.029,0,270.963-121.934,270.963-270.963v0  C1314.592,146.823,1192.658,24.89,1043.629,24.89z"></path>
<g>
	<g>
		<path d="M58.088,255.624c1.515,0.216,3.571,0.433,4.654,0.433c0.433,2.381,0.433,7.576,0.108,10.281    c-0.325,2.597-1.082,7.143-3.139,10.281c-3.03,4.762-7.9,7.035-12.879,6.493c-5.628-0.649-9.307-3.896-11.255-7.684    c-2.056-3.896-2.381-8.009-1.84-12.013c0.433-3.463,1.407-7.468,2.056-8.766c-0.649-0.216-2.814-0.974-3.571-1.19l-0.108-0.974    c1.515,0.433,8.442,1.623,12.229,1.948l-0.541,0.866c-1.407-0.108-2.814,0-3.68,0c-1.299,0.866-4.329,3.355-5.087,9.848    c-0.758,6.926,3.788,12.121,10.173,12.879c6.493,0.758,15.368-3.788,16.45-12.338c0.108-1.082,0.216-3.355-0.433-5.195    c-0.541-0.108-1.948-0.325-3.896-0.541l-2.056-0.216c-1.19-0.108-2.489-0.216-3.247-0.216c-0.216,0.758-0.649,3.247-0.866,4.004    l-0.866,0.108c0.325-2.056,0.758-5.087,0.866-6.493c0.216-1.948,0.649-5.736,0.649-6.277l0.758,0.325c0,0.325-0.108,2.597,0,3.463    c0.649,0.216,3.247,0.541,4.437,0.649L58.088,255.624z"></path>
		<path d="M49.863,243.07c-2.164-0.649-8.117-2.273-9.307-2.381c-0.433,0.758-1.299,2.922-1.623,3.896l-0.866-0.108    c0.325-0.974,1.299-4.221,1.948-6.493c0.758-2.597,1.623-6.277,1.84-7.035l0.758,0.433c-0.216,0.974-0.433,3.03-0.758,4.654    c1.19,0.541,6.602,2.056,9.74,2.922l1.407,0.433c4.978,1.407,12.338,3.463,13.203,3.463c1.299-4.545,1.19-7.9,0.649-9.632    c-1.082-0.974-2.922-1.948-4.004-2.597l0.108-0.974c3.139,1.732,7.035,3.571,12.013,5.519l-0.433,0.866    c-0.541-0.108-3.355-1.19-4.437-1.407c-0.325,0.866-2.814,8.983-3.355,11.039c-0.541,1.948-1.407,5.411-1.623,6.493l-0.758-0.325    c0.108-0.541,0.649-3.355,0.649-4.221c-1.623-0.649-8.983-2.706-12.771-3.788L49.863,243.07z"></path>
		<path d="M69.018,226.403c-3.896,1.515-7.035,1.299-10.498-0.216c-7.359-3.03-11.472-11.905-7.251-22.186    c1.623-3.896,3.571-6.818,7.251-8.983c3.355-2.056,7.576-2.056,11.039-0.649c9.091,3.788,12.121,13.095,8.225,22.294    C76.378,220.342,73.997,224.347,69.018,226.403z M70.534,199.996c-7.9-3.247-15.801-0.216-18.398,5.952    c-2.164,5.087-0.974,12.121,6.602,15.26c6.602,2.814,15.368,0.108,18.398-7.035C79.408,208.871,76.486,202.485,70.534,199.996z"></path>
		<path d="M74.213,187.875c-2.381-1.623-7.684-4.87-9.091-5.736c-0.974,0.974-1.948,2.273-2.597,3.247l-0.758-0.325    c0.649-1.082,4.654-7.684,6.061-9.74c4.329-6.493,7.684-5.736,9.307-4.654c0.974,0.649,1.732,1.19,2.597,2.922    c1.082,2.489,0.866,5.195,0.649,6.602l0.108,0.108c2.706-2.922,7.467-4.978,10.931-2.597c3.788,2.489,4.329,7.359,1.299,12.013    c-0.325,0.433-1.082,1.515-1.948,2.706c-0.866,1.082-1.732,2.273-2.164,3.03c-0.433,0.758-2.597,4.113-3.247,5.195l-0.649-0.649    c0.433-0.866,1.515-2.922,1.84-3.788c-2.164-1.732-7.143-4.978-10.065-6.926L74.213,187.875z M77.352,184.845    c0.649-1.082,1.623-2.922,1.515-4.762c-0.108-1.84-1.19-3.571-2.922-4.762c-2.922-1.84-5.952-1.407-7.792,1.299    c-0.325,0.541-0.649,1.082-0.649,1.515c0.325,0.325,4.978,3.463,8.009,5.411L77.352,184.845z M80.166,186.684    c2.922,1.84,8.009,4.978,8.55,5.087c1.082-0.433,2.056-1.515,2.489-2.164c2.056-3.139,1.19-5.628-1.082-7.143    c-2.164-1.407-5.628-1.732-8.333-0.216c-1.623,0.866-2.922,2.597-3.355,3.463L80.166,186.684z"></path>
		<path d="M108.412,167.529c0.866-1.19,1.623-2.381,2.273-3.463c-2.056-0.866-10.498-4.329-11.796-4.545    c-0.974,1.082-4.978,6.169-5.736,7.467c0.216,0.541,4.654,7.251,6.71,9.524c0.866-0.541,1.84-1.515,2.706-2.273l0.758,0.433    c-0.866,0.866-3.355,3.68-4.113,4.545c-0.649,0.758-2.381,2.922-2.922,3.68l-0.541-0.649c0.649-0.974,1.299-2.056,1.84-3.03    c-0.974-2.814-12.229-23.16-12.987-24.567c-0.758,0.541-1.732,1.407-2.489,2.056l-0.649-0.541    c0.866-0.866,3.139-3.355,3.571-3.896c1.082-1.299,3.68-4.437,4.437-5.303l0.541,0.649c-0.649,0.866-1.19,1.84-1.623,2.706    c1.623,0.758,7.9,3.247,12.121,4.87c3.139,1.19,9.848,3.788,13.853,4.654c0.974-0.758,1.84-1.515,2.814-2.273l0.758,0.433    c-0.433,0.325-3.139,3.355-4.545,4.978c-0.758,0.866-3.68,4.437-4.329,5.303L108.412,167.529z M85.902,154.109L85.902,154.109    c1.84,3.355,5.411,9.957,6.169,11.147l5.736-6.385C95.101,157.897,87.958,155.083,85.902,154.109z"></path>
		<path d="M107.655,143.936c-1.515-1.623-5.844-6.169-6.818-7.035c-0.758,0.433-2.706,1.84-3.463,2.489l-0.649-0.541    c0.758-0.649,3.355-2.922,5.195-4.545c1.948-1.84,4.762-4.545,5.303-5.087l0.433,0.758c-0.649,0.758-2.056,2.381-3.03,3.571    c0.758,1.082,4.654,5.303,6.818,7.576l0.974,1.082c3.571,3.788,8.874,9.416,9.524,9.957c3.463-3.247,5.195-6.277,5.628-8.009    c-0.541-1.407-1.515-3.247-2.056-4.329l0.541-0.758c1.84,3.139,4.221,6.71,7.467,11.039l-0.758,0.433    c-0.433-0.433-2.273-2.814-3.03-3.571c-0.649,0.541-7.143,6.277-8.658,7.792c-1.515,1.407-4.113,3.896-4.87,4.762l-0.433-0.758    c0.433-0.433,2.273-2.489,2.706-3.247c-1.082-1.407-6.277-7.035-8.983-9.957L107.655,143.936z"></path>
		<path d="M148.78,108.438c-0.433-0.649-1.623-2.164-2.056-2.597c-1.623-0.974-6.277-1.299-10.606,1.623    c-6.061,4.113-6.818,11.039-3.247,16.234c4.437,6.385,13.42,8.225,20.454,3.463c2.489-1.732,5.195-4.113,6.602-7.143l0.541,1.732    c-0.325,1.19-2.706,4.762-7.9,8.333c-1.19,0.866-4.87,3.139-8.442,3.68c-5.736,0.866-10.822-1.19-13.745-5.411    c-3.139-4.545-3.139-9.524-1.515-13.42c1.84-4.654,4.654-7.143,8.009-9.524c2.922-1.948,6.385-3.463,7.467-3.896    c-0.108-0.541-1.19-2.922-1.299-3.463l0.649-0.649c1.948,4.004,4.113,7.576,6.277,10.714L148.78,108.438z"></path>
		<path d="M162.741,117.745c-4.004-1.515-6.061-3.788-7.684-7.143c-3.463-7.251-0.541-16.667,9.524-21.428    c3.896-1.84,7.251-2.706,11.58-1.84c3.896,0.758,7.143,3.571,8.766,6.926c4.221,8.983,0.216,17.965-8.874,22.186    C172.265,118.286,167.828,119.693,162.741,117.745z M181.572,99.131c-3.68-7.792-11.688-10.822-17.749-7.9    c-4.978,2.381-8.874,8.333-5.303,15.909c3.139,6.602,11.364,10.498,18.506,7.143C182.33,111.685,184.386,104.975,181.572,99.131z"></path>
		<path d="M217.611,98.373c0.541-0.216,3.355-1.407,4.004-1.732c-0.541-1.407-9.091-17.532-10.498-20.13h-0.108    c-0.325,2.597-2.164,23.268-2.597,25.757c-1.84-2.056-14.827-18.831-15.693-20.13h-0.108c0.866,6.169,1.84,17.424,3.571,22.294    c0.758-0.108,2.922-0.433,3.571-0.541l0.433,0.758c-0.541,0.108-4.978,1.407-5.736,1.623c-0.974,0.325-2.922,0.974-4.221,1.407    v-0.866c0.649-0.325,1.732-0.866,2.597-1.299c0.108-2.706-1.623-22.727-1.948-26.082c-1.082,0.216-3.463,0.541-3.896,0.649    l-0.433-0.758c0.541-0.108,3.463-0.974,5.519-1.515c1.623-0.541,4.654-1.515,5.628-1.948l0.108,0.866    c-1.082,0.433-2.056,1.082-2.706,1.407c2.164,3.139,10.714,14.177,12.771,16.667c0.433-2.489,2.164-20.346,1.948-21.212    c-0.758,0-2.056,0.216-2.706,0.216l-0.433-0.758c1.19-0.325,3.896-0.974,5.195-1.407c1.19-0.325,4.437-1.407,5.195-1.84    l0.108,0.866c-0.541,0.216-2.273,1.082-3.03,1.515c2.056,4.004,11.147,20.563,12.554,22.727c0.974-0.108,2.597-0.325,3.355-0.433    l0.433,0.758c-1.299,0.325-3.68,0.974-5.411,1.515c-1.732,0.541-5.952,1.948-7.035,2.381L217.611,98.373z"></path>
		<path d="M237.091,79.217c0.433,3.355,1.515,12.446,1.84,13.528c0.974,0,3.788,0,5.087-0.108l0.325,0.758    c-1.299,0.108-5.736,0.541-7.576,0.758c-1.948,0.216-5.736,0.758-6.818,0.974l0.108-0.866c0.541-0.108,3.139-0.758,4.113-1.082    c0-1.732-1.082-10.173-1.515-13.853l-0.216-1.623c-0.108-1.299-1.082-8.442-1.407-9.74c-0.758-0.216-3.355-0.108-4.329,0    l-0.216-0.866c1.19-0.108,6.926-0.866,8.766-1.082c4.329-0.541,7.576-0.541,9.632,0c3.68,1.082,4.329,3.355,4.437,4.329    c0.325,2.706-0.541,4.87-1.948,6.602c-2.273,2.922-6.385,4.545-7.792,4.87v-0.974c1.407-0.541,5.952-2.489,5.195-8.442    c-0.325-2.381-1.732-4.221-3.788-4.978c-1.407-0.433-3.463-0.433-5.195-0.216c0,1.19,0.649,6.71,1.082,10.173L237.091,79.217z"></path>
		<path d="M256.68,75.105c-0.108-2.273-0.433-8.442-0.649-9.632c-0.866-0.108-3.247-0.325-4.329-0.325l-0.108-0.866    c0.974,0,4.437-0.108,6.926-0.216c2.706-0.108,6.493-0.433,7.251-0.541l-0.108,0.866c-0.974,0.108-3.03,0.541-4.654,0.758    c-0.108,1.299,0.108,7.035,0.325,10.173l0.108,1.407c0.216,5.195,0.649,12.879,0.866,13.745c4.762-0.216,7.9-1.407,9.416-2.489    c0.541-1.407,0.974-3.463,1.19-4.654l0.974-0.216c-0.649,3.571-1.19,7.792-1.407,13.203l-0.974-0.108c0-0.541,0-3.571,0-4.654    c-0.866,0-9.416,0.216-11.58,0.325c-1.948,0.108-5.628,0.325-6.71,0.541l0.108-0.866c0.541-0.108,3.355-0.433,4.221-0.758    c0.108-1.732-0.325-9.416-0.433-13.312L256.68,75.105z"></path>
		<path d="M284.169,78.027c-0.216,5.195-0.433,11.796-0.325,12.662c0.974,0.325,3.355,0.649,4.113,0.758l0.216,0.866    c-0.866-0.108-4.978-0.325-7.467-0.433c-1.407,0-4.978-0.108-6.277-0.108l0.216-0.866c0.649,0,3.355-0.216,4.221-0.433    c0.216-1.623,0.541-9.091,0.758-12.987l0.108-2.381c0-1.299,0.325-8.766,0.216-10.173c-0.758-0.216-3.355-0.649-4.113-0.758    l-0.216-0.866c0.758,0.108,4.437,0.325,7.576,0.433c2.056,0.108,5.411,0.108,6.169,0.108l-0.216,0.866    c-0.758,0-2.814,0.325-4.221,0.433c-0.216,0.758-0.433,5.411-0.649,10.281L284.169,78.027z"></path>
		<path d="M305.381,93.395c1.407,0.108,2.814,0.108,4.113,0.108c-0.433-2.164-1.948-11.039-2.381-12.229    c-1.407-0.216-7.684-0.866-9.199-0.866c-0.325,0.541-3.571,7.684-4.437,10.606c0.974,0.433,2.273,0.758,3.355,1.082v0.866    c-1.19-0.216-4.762-0.866-5.952-1.082c-1.082-0.108-3.68-0.541-4.654-0.541l0.216-0.866c1.19,0.108,2.381,0,3.463,0    c1.84-2.273,12.987-22.403,13.745-23.809c-0.866-0.325-2.164-0.758-3.03-0.974l0.108-0.866c1.19,0.216,4.437,0.866,5.087,0.974    c1.623,0.216,5.628,0.758,6.818,0.866l-0.216,0.866c-1.082,0-2.165,0-3.139,0c0.216,1.84,1.407,8.333,2.273,12.771    c0.649,3.247,2.056,10.281,3.355,13.961c1.082,0.433,2.273,0.758,3.355,1.082v0.866c-0.433-0.108-4.437-0.866-6.493-1.19    c-1.19-0.216-5.628-0.758-6.71-0.866L305.381,93.395z M304.732,67.529L304.732,67.529c-1.84,3.355-5.519,9.74-6.061,11.039    l8.333,1.407C306.572,77.269,305.165,69.802,304.732,67.529z"></path>
		<path d="M323.563,68.503c2.164,0.541,5.736,1.623,8.766,2.381c0.433,1.515,5.087,13.528,5.519,14.394    c0.649,1.407,4.437,10.606,5.303,12.013c1.299-4.221,5.411-17.641,5.303-19.805c-0.758-0.433-2.597-1.299-3.68-1.732l0.108-0.866    c0.649,0.325,4.762,1.623,5.628,1.948c0.866,0.216,4.004,1.19,4.87,1.299l-0.433,0.758c-0.541-0.108-1.948-0.216-3.03-0.325    c-0.866,1.299-2.814,6.602-3.247,7.9c-0.649,1.732-5.952,17.641-6.602,19.156c-0.758-1.407-7.576-16.991-8.117-18.29    c-0.325-0.758-4.87-11.796-5.628-13.636c-0.325,0.758-6.061,20.887-6.061,22.403c0.541,0.325,3.247,1.515,4.004,1.84l-0.108,0.866    c-0.649-0.325-4.545-1.623-5.628-1.948c-1.082-0.325-4.113-1.19-5.195-1.407l0.325-0.758c1.082,0.216,2.381,0.433,3.355,0.433    c1.19-1.407,8.225-22.619,8.55-23.918c-0.866-0.433-2.597-1.19-4.004-1.732V68.503z"></path>
		<path d="M380.814,99.996c0.325-0.649,0.974-2.489,1.19-3.139c0.108-1.948-2.056-6.169-6.71-8.333    c-6.602-3.139-12.987-0.325-15.693,5.303c-3.355,7.035-0.325,15.801,7.359,19.372c2.706,1.299,6.169,2.381,9.524,2.056    l-1.19,1.299c-1.19,0.325-5.519,0-11.255-2.597c-1.299-0.649-5.195-2.597-7.467-5.519c-3.571-4.545-4.437-9.957-2.273-14.61    c2.381-4.978,6.602-7.468,10.822-8.117c4.978-0.758,8.55,0.325,12.229,2.056c3.139,1.515,6.277,3.788,7.143,4.545    c0.433-0.325,1.948-2.489,2.273-2.814l0.866,0.216c-2.381,3.68-4.437,7.359-6.061,10.822L380.814,99.996z"></path>
		<path d="M386.983,108.546c2.056-3.03,5.519-8.442,6.061-9.524c-0.541-0.541-2.489-2.164-3.139-2.814l0.325-0.758    c0.758,0.541,1.84,1.407,2.922,2.164c1.082,0.758,2.164,1.515,2.922,2.056c1.082,0.758,8.983,6.061,10.065,6.385    c0.325-0.325,0.866-0.866,1.299-1.407l0.866,0.433c-0.649,0.541-4.545,5.519-5.411,6.493l-0.541-0.758    c0.108-0.216,1.19-1.732,1.623-2.381c0-1.407-4.87-5.303-6.602-6.493c-0.433,0.433-4.978,6.818-6.277,8.766l-0.433,0.649    c2.922,1.948,6.277,3.896,7.359,4.113c0.541-0.433,0.974-0.758,1.299-1.19l0.758,0.433c-0.541,0.541-4.221,4.762-5.087,5.736    l-0.433-0.649c0.541-0.649,1.082-1.515,1.623-2.164c-0.649-1.19-3.139-3.247-6.061-5.195l-0.433,0.649    c-1.407,2.056-6.169,9.524-6.71,10.498c3.355,2.273,6.71,4.113,8.874,4.329c1.19-0.974,2.056-1.84,2.706-2.489l0.866,0.325    c-0.866,0.866-5.087,5.411-6.385,7.035l-0.649-0.649c0.649-0.866,0.974-1.515,1.299-2.056c-0.866-0.866-8.225-5.952-10.39-7.467    c-1.19-0.758-3.896-2.489-5.195-3.355l0.649-0.541c0.541,0.325,2.706,1.515,3.788,1.84c0.541-0.541,4.762-6.602,7.359-10.281    L386.983,108.546z"></path>
		<path d="M433.195,140.364c0.541-0.541,1.732-1.948,2.164-2.597c0.649-1.84,0-6.385-3.788-9.957    c-5.195-4.978-12.229-4.329-16.45,0.108c-5.411,5.628-5.303,14.827,0.758,20.563c2.164,2.056,5.087,4.221,8.333,4.978    l-1.623,0.866c-1.19-0.108-5.195-1.732-9.74-6.061c-1.082-0.974-4.113-4.113-5.303-7.468c-1.948-5.411-1.082-10.822,2.489-14.502    c3.788-4.004,8.658-4.978,12.77-4.221c4.87,0.866,8.009,3.03,10.822,5.844c2.489,2.381,4.762,5.519,5.303,6.493    c0.541-0.216,2.597-1.732,3.03-1.948l0.758,0.541c-3.463,2.706-6.493,5.628-9.091,8.333L433.195,140.364z"></path>
		<path d="M437.524,150.105c2.706-2.381,7.359-6.602,8.225-7.468c-0.325-0.649-1.732-2.706-2.273-3.463l0.541-0.649    c0.649,0.758,1.407,1.732,2.273,2.814c0.866,0.974,1.732,2.056,2.273,2.706c0.866,0.974,6.926,8.009,7.9,8.658    c0.433-0.216,1.082-0.541,1.623-0.974l0.758,0.541c-0.758,0.433-5.736,4.004-6.71,4.762l-0.325-0.866    c0.216-0.216,1.623-1.299,2.165-1.84c0.433-1.299-3.247-6.277-4.654-7.9c-0.541,0.325-6.385,5.195-8.225,6.71l-0.649,0.541    c2.273,2.597,4.978,5.303,5.844,5.844c0.541-0.216,1.082-0.541,1.515-0.866l0.649,0.541c-0.649,0.433-5.195,3.463-6.277,4.113    l-0.216-0.758c0.649-0.541,1.515-1.19,2.056-1.732c-0.325-1.299-2.164-3.896-4.437-6.385l-0.649,0.541    c-1.84,1.623-8.333,7.359-9.091,8.225c2.597,3.03,5.303,5.628,7.251,6.277c1.299-0.541,2.381-1.19,3.247-1.623l0.758,0.541    c-1.082,0.541-6.169,3.896-7.792,4.978l-0.433-0.758c0.758-0.758,1.407-1.19,1.84-1.623c-0.649-0.974-6.277-7.792-7.9-9.632    c-0.866-0.974-3.03-3.355-4.113-4.437l0.758-0.433c0.433,0.433,2.164,2.056,3.138,2.706c0.649-0.325,6.277-5.087,9.524-7.9    L437.524,150.105z"></path>
		<path d="M454.731,168.611c1.19-0.758,7.467-5.087,8.009-5.628c-0.216-0.649-1.515-3.03-1.948-3.788l0.649-0.541l4.87,7.035    c2.056,3.139,4.762,7.035,5.303,9.848c0.433,2.164,0,4.113-1.84,5.303c-2.056,1.407-6.169,1.19-9.307-0.433    c-0.541,0.866-5.628,12.013-6.926,17.857l-1.19-1.299c-0.541-3.03,3.68-18.506,4.004-19.589c-0.974-1.19-1.948-2.489-2.273-3.03    l-0.866,0.541c-2.164,1.407-7.143,4.87-8.55,6.061c0.216,0.649,1.407,3.03,1.84,3.788l-0.649,0.649    c-0.541-0.866-2.706-4.221-3.68-5.736c-0.866-1.299-3.355-4.762-3.896-5.411l0.758-0.325c0.325,0.433,1.948,2.381,2.814,3.139    c1.082-0.541,7.467-4.87,10.931-7.143L454.731,168.611z M454.948,173.806c0.758,1.19,1.84,2.489,3.355,3.571    s4.545,2.381,7.792,0.216c2.056-1.407,3.355-5.087-0.433-10.714c-1.407,0.758-7.359,4.762-9.632,6.277L454.948,173.806z"></path>
		<path d="M473.454,198.156c2.597-1.407,7.792-4.329,8.658-4.87c-3.03-5.628-5.303-7.792-6.385-8.442    c-0.974,0.108-2.381,0.649-3.68,1.082l-0.649-0.649c1.732-0.758,6.493-2.706,9.199-4.221l0.325,0.866    c-0.433,0.325-1.515,0.974-2.165,1.407c0.216,0.649,3.247,6.818,5.844,11.688c2.706,5.195,6.277,11.147,6.71,11.688    c0.541-0.108,1.732-0.433,2.489-0.649l0.649,0.866c-0.974,0.216-8.658,3.355-9.74,3.788l-0.216-0.974    c1.407-0.649,2.922-1.407,3.68-1.84c0.216-1.299-1.623-6.602-3.463-10.065c-0.974,0.433-6.277,3.139-8.766,4.437l-1.623,0.866    c-3.139,1.623-9.091,4.978-11.905,6.602c0.216,0.758,1.623,4.113,1.948,4.87l-0.649,0.541c-0.433-0.866-2.489-5.087-3.571-7.035    c-0.866-1.623-3.247-5.844-3.788-6.818l0.866-0.216c0.541,0.758,2.381,3.463,2.922,4.329c2.814-1.407,8.983-4.545,12.013-6.277    L473.454,198.156z"></path>
		<path d="M483.194,223.806c-4.762,2.164-10.822,4.87-11.472,5.411c0.216,0.974,0.974,3.355,1.19,4.113l-0.649,0.541    c-0.325-0.866-1.948-4.654-2.922-6.926c-0.541-1.19-2.164-4.545-2.706-5.628l0.866-0.216c0.325,0.649,1.732,2.922,2.273,3.68    c1.623-0.541,8.333-3.571,11.905-5.087l2.164-0.974c1.19-0.541,8.009-3.68,9.199-4.329c-0.216-0.758-0.974-3.355-1.19-4.113    l0.649-0.541c0.216,0.758,1.623,4.113,2.922,7.035c0.866,1.84,2.273,4.978,2.706,5.519l-0.866,0.108    c-0.433-0.649-1.515-2.381-2.273-3.571c-0.758,0.216-5.087,2.056-9.524,4.004L483.194,223.806z"></path>
		<path d="M488.93,234.412c3.463-1.19,9.524-3.247,10.606-3.68c0.108-0.541-0.541-3.03-0.758-4.221l0.758-0.433    c0.325,1.407,1.515,5.195,2.056,6.71c0.541,1.623,3.788,11.255,4.221,12.013c0.541,0,1.948-0.216,2.922-0.433l0.433,0.866    c-1.84,0.325-6.71,1.515-9.632,2.489v-0.974c0.649-0.216,2.273-0.866,2.922-1.19c0.866-1.84-0.649-8.009-1.299-9.957    c-0.649,0-7.467,2.164-10.281,3.03l-0.866,0.325c0.649,1.84,2.381,6.818,3.247,7.9c0.649,0,1.623-0.108,2.381-0.216l0.433,0.758    c-1.948,0.325-5.844,1.299-8.658,2.165v-0.866c0.758-0.216,2.056-0.758,3.139-1.299c0.433-1.19-0.866-5.952-1.623-8.117    l-1.19,0.433c-3.139,1.082-9.848,3.355-10.822,3.896c0.216,1.515,0.649,3.463,0.866,4.329l-0.758,0.433    c-0.325-1.407-1.299-4.545-2.164-7.035c-0.758-2.165-1.732-4.978-2.273-6.277l0.866-0.108c0.216,0.433,1.19,2.922,1.84,3.896    c0.866-0.216,7.143-2.164,11.364-3.571L488.93,234.412z"></path>
		<path d="M495.532,263.091c-5.087,1.082-11.58,2.489-12.338,2.814c0,0.974,0.216,3.463,0.325,4.221l-0.758,0.325    c-0.108-0.866-0.866-4.978-1.407-7.359c-0.325-1.299-1.082-4.87-1.407-6.061h0.866c0.216,0.649,1.082,3.247,1.407,4.004    c1.623-0.216,8.874-1.732,12.662-2.489l2.273-0.541c1.299-0.325,8.55-1.84,9.848-2.273c0-0.866-0.216-3.463-0.325-4.221    l0.758-0.325c0.108,0.758,0.758,4.329,1.407,7.467c0.433,1.948,1.19,5.303,1.407,5.952h-0.866    c-0.216-0.758-0.974-2.597-1.407-4.004c-0.866,0-5.303,0.974-10.173,1.948L495.532,263.091z"></path>
		<path d="M506.463,295.559c0.758-0.108,2.597-0.433,3.247-0.649c1.623-0.974,4.113-4.978,3.463-10.065    c-0.866-7.143-6.602-11.147-12.771-10.39c-7.684,0.866-13.528,8.009-12.446,16.45c0.325,3.03,1.299,6.493,3.247,9.091    l-1.732-0.325c-0.866-0.866-2.922-4.654-3.68-10.822c-0.216-1.515-0.541-5.844,0.649-9.199c1.948-5.411,6.061-8.983,11.147-9.632    c5.411-0.649,9.848,1.623,12.554,4.87c3.247,3.788,4.221,7.359,4.654,11.364c0.433,3.463,0.108,7.251,0,8.333    c0.541,0.216,3.139,0.325,3.571,0.433l0.325,0.866c-4.437-0.108-8.55,0.216-12.338,0.541L506.463,295.559z"></path>
		<path d="M488.606,317.745c0.108,1.407,0.325,2.814,0.649,4.004c2.056-0.758,10.498-3.788,11.688-4.437    c0-1.407-0.433-7.792-0.649-9.307c-0.541-0.216-8.225-2.273-11.255-2.597c-0.216,0.974-0.433,2.381-0.541,3.463l-0.866,0.216    c0.108-1.299,0.108-4.87,0.108-6.061c0-1.082-0.108-3.68-0.216-4.654l0.866,0.108c0.108,1.19,0.325,2.381,0.649,3.463    c2.597,1.407,24.351,8.983,25.866,9.524c0.216-0.866,0.325-2.164,0.433-3.139l0.866-0.108c-0.108,1.19-0.108,4.545-0.108,5.195    c0,1.732,0.216,5.736,0.325,6.818l-0.866-0.108c-0.108-1.082-0.325-2.164-0.541-3.03c-1.732,0.541-8.009,2.814-12.229,4.437    c-3.03,1.19-9.74,3.788-13.312,5.736c-0.216,1.19-0.325,2.381-0.541,3.571l-0.866,0.108c0.108-0.433,0.108-4.545,0-6.71    c0-1.19-0.216-5.736-0.325-6.818L488.606,317.745z M514.038,312.766L514.038,312.766c-3.571-1.299-10.606-3.788-11.905-4.113    v8.442C504.731,316.229,511.874,313.524,514.038,312.766z"></path>
		<path d="M504.082,338.74c2.922,0,8.874-0.108,9.74-0.216c0-6.385-1.082-9.307-1.732-10.39c-0.866-0.325-2.489-0.541-3.788-0.758    l-0.216-0.866c1.948,0.108,6.926,0.649,10.065,0.541l-0.108,0.866c-0.541,0-1.732,0.108-2.597,0.216    c-0.108,0.649-0.325,7.467-0.325,12.879c0,5.844,0.325,12.662,0.433,13.312c0.433,0.108,1.732,0.433,2.489,0.541l0.216,0.974    c-0.866-0.216-9.091-1.082-10.281-1.19l0.216-0.866c1.623,0.108,3.247,0.108,4.113,0.108c0.758-0.974,1.623-6.602,1.623-10.39    c-1.082-0.108-6.926-0.216-9.74-0.216h-1.84c-3.463,0-10.281,0.108-13.42,0.216c-0.108,0.758-0.433,4.437-0.541,5.195    l-0.866,0.216c0.108-0.974,0.108-5.628,0.108-7.792c0-1.84-0.108-6.602-0.216-7.792l0.866,0.216    c0.108,0.866,0.433,4.113,0.541,5.087c3.138,0.108,9.957,0.216,13.42,0.108L504.082,338.74z"></path>
		<path d="M501.268,365.472c-5.087,0-11.688,0-12.446,0.108c-0.216,0.974-0.541,3.355-0.541,4.113l-0.866,0.216    c0.108-0.866,0.216-4.978,0.216-7.359c0-1.299,0-4.978-0.108-6.169l0.866,0.108c0,0.649,0.325,3.355,0.541,4.221    c1.623,0.216,8.874,0.216,12.771,0.216h2.273c1.299,0,8.658,0,9.957-0.108c0.108-0.758,0.433-3.355,0.541-4.113l0.866-0.216    c-0.108,0.758-0.216,4.329-0.216,7.467c0,2.056,0,5.411,0.108,6.061l-0.866-0.216c-0.108-0.758-0.433-2.706-0.541-4.113    c-0.758-0.108-5.303-0.216-10.173-0.216H501.268z"></path>
		<path d="M490.878,376.402c2.922-2.922,5.844-3.896,9.632-3.896c7.9,0,15.151,6.385,15.151,17.424    c0,4.221-0.649,7.576-3.138,11.039c-2.273,3.139-6.169,4.87-9.848,4.87c-9.74,0.108-16.125-7.359-16.125-17.099    C486.441,384.627,487.091,380.082,490.878,376.402z M499.645,400.969c8.442,0,14.502-5.952,14.394-12.554    c0-5.411-3.788-11.364-11.905-11.364c-7.143,0-14.069,5.844-14.069,13.636C488.173,396.316,493.259,400.969,499.645,400.969z"></path>
		<path d="M514.796,407.896c0,2.164,0,5.952,0.108,8.983c-1.407,0.866-11.472,8.658-12.229,9.307    c-1.082,0.974-8.874,7.143-9.957,8.442c4.437,0.108,18.29,0.325,20.346-0.433c0.216-0.758,0.541-2.922,0.649-4.004l0.866-0.216    c-0.108,0.758-0.216,4.978-0.216,5.844c0,0.866,0,4.113,0.108,4.978l-0.866-0.216c-0.108-0.541-0.325-1.948-0.541-3.03    c-1.515-0.541-7.143-0.758-8.333-0.866c-1.84-0.108-18.398-0.758-20.022-0.974c1.082-1.19,14.069-11.905,15.151-12.771    c0.649-0.541,9.848-7.9,11.472-9.199c-0.758-0.108-21.537,0-22.944,0.433c-0.216,0.541-0.541,3.571-0.649,4.329l-0.866,0.108    c0.108-0.758,0.216-4.87,0.216-5.844c0-1.19,0-4.221-0.108-5.411l0.866,0.108c0.108,1.082,0.216,2.381,0.541,3.247    c1.623,0.649,23.809,1.515,25.108,1.515c0.216-0.866,0.433-2.814,0.541-4.329H514.796z"></path>
		<path d="M286.55,453.458v37.446h-2.922c-3.571-10.281-8.874-17.965-16.017-23.377c-7.143-5.303-14.827-8.009-23.268-8.009    c-8.009,0-14.719,2.273-20.13,6.71c-5.303,4.437-9.091,10.714-11.364,18.723c-2.273,8.009-3.355,16.234-3.355,24.567    c0,10.173,1.19,19.156,3.68,26.732c2.489,7.684,6.385,13.312,11.796,16.883c5.411,3.571,11.905,5.411,19.372,5.411    c2.597,0,5.303-0.325,8.009-0.866s5.519-1.299,8.333-2.381V533.22c0-4.221-0.325-6.926-0.866-8.117    c-0.541-1.19-1.84-2.381-3.571-3.355c-1.84-0.974-4.004-1.515-6.602-1.515h-2.814v-2.922h52.381v2.922    c-4.004,0.216-6.71,0.758-8.333,1.623c-1.515,0.758-2.814,2.164-3.571,4.004c-0.433,0.974-0.758,3.463-0.758,7.251v22.078    c-6.926,3.03-14.069,5.303-21.537,6.818s-15.151,2.273-23.16,2.273c-10.173,0-18.723-1.407-25.433-4.113    c-6.71-2.706-12.662-6.385-17.857-10.822c-5.195-4.437-9.199-9.524-12.121-15.043c-3.68-7.251-5.519-15.26-5.519-24.242    c0-16.017,5.736-29.437,17.1-40.476c11.364-11.039,25.757-16.558,42.965-16.558c5.303,0,10.173,0.433,14.502,1.299    c2.381,0.433,6.061,1.623,11.364,3.571c5.195,1.948,8.333,2.922,9.307,2.922c1.515,0,2.814-0.541,4.113-1.623    c1.299-1.082,2.489-3.138,3.463-6.061h2.814V453.458z"></path>
		<path d="M402.459,453.242v36.58h-3.03c-2.273-9.524-6.602-16.883-12.879-21.97c-6.277-5.087-13.42-7.684-21.32-7.684    c-6.602,0-12.771,1.948-18.29,5.736c-5.519,3.788-9.632,8.766-12.229,14.827c-3.247,7.792-4.978,16.558-4.978,26.19    c0,9.416,1.19,18.074,3.571,25.866c2.381,7.792,6.169,13.636,11.364,17.641c5.087,4.004,11.797,5.952,19.913,5.952    c6.71,0,12.879-1.407,18.398-4.329c5.628-2.922,11.472-7.9,17.641-15.043v9.091c-5.952,6.169-12.229,10.606-18.615,13.42    c-6.493,2.814-14.069,4.221-22.619,4.221c-11.364,0-21.428-2.273-30.303-6.818c-8.874-4.545-15.584-11.039-20.454-19.48    c-4.762-8.441-7.143-17.424-7.143-27.056c0-10.065,2.706-19.589,8.009-28.68c5.303-8.983,12.446-16.017,21.537-20.996    c8.983-4.978,18.615-7.467,28.788-7.467c7.467,0,15.368,1.623,23.701,4.87c4.87,1.84,7.9,2.814,9.199,2.814    c1.623,0,3.139-0.649,4.329-1.84c1.19-1.19,2.056-3.139,2.381-5.844H402.459z"></path>
		<path d="M513.822,453.242v36.58h-3.03c-2.273-9.524-6.602-16.883-12.879-21.97c-6.277-5.087-13.42-7.684-21.32-7.684    c-6.602,0-12.77,1.948-18.29,5.736c-5.519,3.788-9.632,8.766-12.229,14.827c-3.247,7.792-4.978,16.558-4.978,26.19    c0,9.416,1.19,18.074,3.571,25.866c2.381,7.792,6.169,13.636,11.364,17.641c5.087,4.004,11.796,5.952,19.913,5.952    c6.71,0,12.879-1.407,18.398-4.329c5.628-2.922,11.472-7.9,17.641-15.043v9.091c-5.952,6.169-12.229,10.606-18.615,13.42    c-6.493,2.814-14.069,4.221-22.619,4.221c-11.364,0-21.428-2.273-30.303-6.818c-8.874-4.545-15.584-11.039-20.454-19.48    c-4.762-8.441-7.143-17.424-7.143-27.056c0-10.065,2.706-19.589,8.009-28.68c5.303-8.983,12.446-16.017,21.537-20.996    c8.983-4.978,18.615-7.467,28.788-7.467c7.467,0,15.368,1.623,23.701,4.87c4.87,1.84,7.9,2.814,9.199,2.814    c1.623,0,3.139-0.649,4.329-1.84c1.19-1.19,2.056-3.139,2.381-5.844H513.822z"></path>
		<path fill="#DF0023" d="M303.974,292.42c-61.363,56.71-111.363,132.142-111.363,132.142s-3.788-27.706-28.463-55.628    c-24.675-28.03-60.931,1.19-75.324,15.584c37.662,8.55,68.398,89.394,80.844,123.593c0.108,0.216,0.433,0.433,0.758,0.541    c0.216-18.506,7.143-34.524,20.454-47.402c12.446-12.121,28.03-18.615,46.32-19.589c2.922-6.602,27.922-61.58,78.571-120.238    c87.446-101.407,144.264-109.74,144.264-109.74C423.238,207.68,351.593,248.481,303.974,292.42z"></path>
		<path d="M191.962,557.57c-6.169-5.411-11.147-11.58-14.719-18.398c-4.545-8.766-6.818-18.723-6.818-29.329    c0-0.649,0-1.299,0-1.948c-0.541-0.216-0.758-0.216-0.758-0.216s-45.887-20.996-79.329-74.242    c-41.45-65.043-32.576-127.272-29.004-144.047c0.649-2.922,1.19-7.035,1.19-7.035s-7.359,11.905-22.511,9.199    c-11.58-2.056-17.1-12.662-17.1-12.662s-1.19,3.896-1.623,6.385c-3.03,17.208-12.013,91.125,34.091,169.047    c53.896,90.909,141.991,108.333,141.991,108.333c0.108-0.216,0.216-0.325,0.433-0.541    C195.641,560.601,193.802,559.086,191.962,557.57z"></path>
	</g>
</g>
<g>
	<g>
		<g>
			<path fill="#FFFFFF" d="M662.759,376.747V256.638h25.558c3.814,14.658,15.851,69.056,16.804,74.33h0.56     c-1.279-15.98-2.102-37.83-2.102-54.595v-19.735h21.447v120.109h-25.796c-2.491-11.428-15.622-73.575-16.395-77.418h-0.623     c0.9,14.137,1.605,38.023,1.605,56.904v20.514H662.759z"></path>
			<path fill="#FFFFFF" d="M734.218,256.638h28.399c24.747,0,33.283,11.282,33.283,36.145v45.149     c0,20.698-4.377,38.815-31.713,38.815h-29.97V256.638z M757.348,358.131h4.506c9.054,0,10.557-5.906,10.557-15.277v-53.787     c0-8.869-1.989-13.695-10.737-13.695h-4.325V358.131z"></path>
			<path fill="#FFFFFF" d="M826.285,256.638v120.109h-23.066V256.638H826.285z"></path>
			<path fill="#FFFFFF" d="M853.579,339.728v8.318c0,7.9,1.961,11.568,7.23,11.568c5.322,0,6.572-5.439,6.572-11.106     c0-11.336-2.131-14.619-14.395-24.879c-13.528-11.461-20.485-18.247-20.485-35.939c0-17.157,5.682-32.968,28.434-32.968     c24.157,0,27.724,16.477,27.724,30.224v6.913h-21.812v-7.194c0-7.288-1.197-10.893-5.766-10.893     c-4.262,0-5.639,3.668-5.639,10.47c0,7.234,1.313,10.805,11.248,18.554c17.663,13.879,24.002,21.672,24.002,41.451     c0,18.807-6.427,34.301-30.287,34.301c-22.913,0-29.45-13.82-29.45-31.62v-7.199H853.579z"></path>
		</g>
	</g>
</g>
<g>
	<path fill="#FFFFFF" d="M696.266,489.947v2.97c0,11.821-2.159,24.019-17.936,24.019c-15.467,0-17.958-11.303-17.958-24.521v-46.312   c0-14.662,6.216-22.386,18.054-22.386c14.821,0,17.431,10.722,17.431,22.451v3.426h-8.82v-3.924c0-7.47-1.057-14.055-8.786-14.055   c-7.291,0-9.05,5.883-9.05,14.317v46.964c0,9.862,2.182,16.187,9.361,16.187c7.562,0,8.835-6.649,8.835-15.629v-3.508H696.266z"></path>
	<path fill="#FFFFFF" d="M739.391,471.174H718.92v36.63h23.159l-1.201,7.947h-30.603v-90.849h30.291v7.995H718.92v30.329h20.471   V471.174z"></path>
	<path fill="#FFFFFF" d="M763.032,472.907v42.844h-8.645v-90.849h15.042c13.608,0,19.98,5.967,19.98,20.675v4.318   c0,11.956-4.012,17.368-9.248,19.167c5.871,2.058,8.473,6.52,8.473,18.633c0,7.791-0.137,22.265,0.903,28.056h-8.451   c-1.137-5.703-0.952-21.055-0.952-27.367c0-11.935-1.712-15.477-10.917-15.477H763.032z M763.032,465.49h6.576   c8.917,0,11.07-5.514,11.07-15.179v-4.262c0-8.597-2.454-13.73-11.827-13.73h-5.819V465.49z"></path>
	<path fill="#FFFFFF" d="M813.045,432.898h-14.728v-7.995h37.972v7.995h-14.6v82.854h-8.645V432.898z"></path>
	<path fill="#FFFFFF" d="M856.052,424.902v90.849h-8.645v-90.849H856.052z"></path>
	<path fill="#FFFFFF" d="M874.198,424.902h30.739v7.995h-22.095v30.912h20.791v7.996h-20.791v43.945h-8.645V424.902z"></path>
	<path fill="#FFFFFF" d="M926.362,424.902v90.849h-8.645v-90.849H926.362z"></path>
	<path fill="#FFFFFF" d="M973.576,471.174h-20.471v36.63h23.159l-1.201,7.947h-30.603v-90.849h30.291v7.995h-21.646v30.329h20.471   V471.174z"></path>
	<path fill="#FFFFFF" d="M988.573,424.902h15.784c19.704,0,21.67,12.634,21.67,26.488v36.126c0,13.96-2.097,28.234-22.412,28.234   h-15.042V424.902z M997.218,508.19h5.709c11.428,0,14.272-6.288,14.272-18.769v-39.206c0-11.002-1.976-17.703-14.145-17.703h-5.837   V508.19z"></path>
</g>
</svg>
